{
    "asset" : {
        "generator" : "Khronos glTF Blender I/O v1.6.16",
        "version" : "2.0"
    },
    "scene" : 0,
    "scenes" : [
        {
            "name" : "Scene",
            "nodes" : [
                0
            ]
        }
    ],
    "nodes" : [
        {
            "mesh" : 0,
            "name" : "dishes",
            "rotation" : [
                0,
                0.9998323917388916,
                0,
                0.01830912195146084
            ],
            "scale" : [
                0.7080199718475342,
                0.7080199718475342,
                0.7080199718475342
            ],
            "translation" : [
                -1.6815412044525146,
                0.8605464100837708,
                6.490863800048828
            ]
        }
    ],
    "materials" : [
        {
            "doubleSided" : true,
            "name" : "plateMaterial",
            "pbrMetallicRoughness" : {
                "baseColorFactor" : [
                    0.800000011920929,
                    0.800000011920929,
                    0.800000011920929,
                    1
                ],
                "metallicFactor" : 0,
                "roughnessFactor" : 0.5
            }
        },
        {
            "doubleSided" : true,
            "name" : "plate2material",
            "pbrMetallicRoughness" : {
                "baseColorFactor" : [
                    0.3505564332008362,
                    0.3505564332008362,
                    0.3505564332008362,
                    1
                ],
                "metallicFactor" : 0,
                "roughnessFactor" : 0.5
            }
        },
        {
            "doubleSided" : true,
            "name" : "plate3Material",
            "pbrMetallicRoughness" : {
                "baseColorFactor" : [
                    0.6151774525642395,
                    0.4423656761646271,
                    0.3583069443702698,
                    1
                ],
                "metallicFactor" : 0,
                "roughnessFactor" : 0.5
            }
        },
        {
            "doubleSided" : true,
            "name" : "forkMaterial",
            "pbrMetallicRoughness" : {
                "baseColorFactor" : [
                    0.800000011920929,
                    0.800000011920929,
                    0.800000011920929,
                    1
                ],
                "roughnessFactor" : 0.5
            }
        }
    ],
    "meshes" : [
        {
            "name" : "Cylinder.006",
            "primitives" : [
                {
                    "attributes" : {
                        "POSITION" : 0,
                        "NORMAL" : 1,
                        "TEXCOORD_0" : 2
                    },
                    "indices" : 3,
                    "material" : 0
                },
                {
                    "attributes" : {
                        "POSITION" : 4,
                        "NORMAL" : 5,
                        "TEXCOORD_0" : 6
                    },
                    "indices" : 7,
                    "material" : 1
                },
                {
                    "attributes" : {
                        "POSITION" : 8,
                        "NORMAL" : 9,
                        "TEXCOORD_0" : 10
                    },
                    "indices" : 11,
                    "material" : 2
                },
                {
                    "attributes" : {
                        "POSITION" : 12,
                        "NORMAL" : 13,
                        "TEXCOORD_0" : 14
                    },
                    "indices" : 15,
                    "material" : 3
                }
            ]
        }
    ],
    "accessors" : [
        {
            "bufferView" : 0,
            "componentType" : 5126,
            "count" : 8098,
            "max" : [
                0.24139843881130219,
                0.4161570072174072,
                0.4793606102466583
            ],
            "min" : [
                -1.5632774829864502,
                -0.15911763906478882,
                -0.45488491654396057
            ],
            "type" : "VEC3"
        },
        {
            "bufferView" : 1,
            "componentType" : 5126,
            "count" : 8098,
            "type" : "VEC3"
        },
        {
            "bufferView" : 2,
            "componentType" : 5126,
            "count" : 8098,
            "type" : "VEC2"
        },
        {
            "bufferView" : 3,
            "componentType" : 5123,
            "count" : 29604,
            "type" : "SCALAR"
        },
        {
            "bufferView" : 4,
            "componentType" : 5126,
            "count" : 1934,
            "max" : [
                -0.20223847031593323,
                0.3031293749809265,
                0.4383622407913208
            ],
            "min" : [
                -1.0837349891662598,
                -0.1470234990119934,
                -0.23528513312339783
            ],
            "type" : "VEC3"
        },
        {
            "bufferView" : 5,
            "componentType" : 5126,
            "count" : 1934,
            "type" : "VEC3"
        },
        {
            "bufferView" : 6,
            "componentType" : 5126,
            "count" : 1934,
            "type" : "VEC2"
        },
        {
            "bufferView" : 7,
            "componentType" : 5123,
            "count" : 6852,
            "type" : "SCALAR"
        },
        {
            "bufferView" : 8,
            "componentType" : 5126,
            "count" : 2612,
            "max" : [
                0.24579913914203644,
                0.33637407422065735,
                0.43091753125190735
            ],
            "min" : [
                -1.1732685565948486,
                -0.1470234990119934,
                -0.24425280094146729
            ],
            "type" : "VEC3"
        },
        {
            "bufferView" : 9,
            "componentType" : 5126,
            "count" : 2612,
            "type" : "VEC3"
        },
        {
            "bufferView" : 10,
            "componentType" : 5126,
            "count" : 2612,
            "type" : "VEC2"
        },
        {
            "bufferView" : 11,
            "componentType" : 5123,
            "count" : 9144,
            "type" : "SCALAR"
        },
        {
            "bufferView" : 12,
            "componentType" : 5126,
            "count" : 1315,
            "max" : [
                -0.7710937261581421,
                0.2092399001121521,
                0.23687879741191864
            ],
            "min" : [
                -0.9250391721725464,
                0.19927236437797546,
                -0.024169176816940308
            ],
            "type" : "VEC3"
        },
        {
            "bufferView" : 13,
            "componentType" : 5126,
            "count" : 1315,
            "type" : "VEC3"
        },
        {
            "bufferView" : 14,
            "componentType" : 5126,
            "count" : 1315,
            "type" : "VEC2"
        },
        {
            "bufferView" : 15,
            "componentType" : 5123,
            "count" : 3240,
            "type" : "SCALAR"
        }
    ],
    "bufferViews" : [
        {
            "buffer" : 0,
            "byteLength" : 97176,
            "byteOffset" : 0
        },
        {
            "buffer" : 0,
            "byteLength" : 97176,
            "byteOffset" : 97176
        },
        {
            "buffer" : 0,
            "byteLength" : 64784,
            "byteOffset" : 194352
        },
        {
            "buffer" : 0,
            "byteLength" : 59208,
            "byteOffset" : 259136
        },
        {
            "buffer" : 0,
            "byteLength" : 23208,
            "byteOffset" : 318344
        },
        {
            "buffer" : 0,
            "byteLength" : 23208,
            "byteOffset" : 341552
        },
        {
            "buffer" : 0,
            "byteLength" : 15472,
            "byteOffset" : 364760
        },
        {
            "buffer" : 0,
            "byteLength" : 13704,
            "byteOffset" : 380232
        },
        {
            "buffer" : 0,
            "byteLength" : 31344,
            "byteOffset" : 393936
        },
        {
            "buffer" : 0,
            "byteLength" : 31344,
            "byteOffset" : 425280
        },
        {
            "buffer" : 0,
            "byteLength" : 20896,
            "byteOffset" : 456624
        },
        {
            "buffer" : 0,
            "byteLength" : 18288,
            "byteOffset" : 477520
        },
        {
            "buffer" : 0,
            "byteLength" : 15780,
            "byteOffset" : 495808
        },
        {
            "buffer" : 0,
            "byteLength" : 15780,
            "byteOffset" : 511588
        },
        {
            "buffer" : 0,
            "byteLength" : 10520,
            "byteOffset" : 527368
        },
        {
            "buffer" : 0,
            "byteLength" : 6480,
            "byteOffset" : 537888
        }
    ],
    "buffers" : [
        {
            "byteLength" : 544368,
            "uri" : "data:application/octet-stream;base64,"
        }
    ]
}
