{
    "asset" : {
        "generator" : "Khronos glTF Blender I/O v1.6.16",
        "version" : "2.0"
    },
    "scene" : 0,
    "scenes" : [
        {
            "name" : "Scene",
            "nodes" : [
                0
            ]
        }
    ],
    "nodes" : [
        {
            "mesh" : 0,
            "name" : "dishes",
            "rotation" : [
                0,
                0.9998323917388916,
                0,
                0.01830912195146084
            ],
            "scale" : [
                0.7080199718475342,
                0.7080199718475342,
                0.7080199718475342
            ],
            "translation" : [
                -1.6815412044525146,
                0.8605464100837708,
                6.490863800048828
            ]
        }
    ],
    "materials" : [
        {
            "doubleSided" : true,
            "name" : "plateMaterial",
            "pbrMetallicRoughness" : {
                "baseColorFactor" : [
                    0.800000011920929,
                    0.800000011920929,
                    0.800000011920929,
                    1
                ],
                "metallicFactor" : 0,
                "roughnessFactor" : 0.5
            }
        },
        {
            "doubleSided" : true,
            "name" : "plate2material",
            "pbrMetallicRoughness" : {
                "baseColorFactor" : [
                    0.3505564332008362,
                    0.3505564332008362,
                    0.3505564332008362,
                    1
                ],
                "metallicFactor" : 0,
                "roughnessFactor" : 0.5
            }
        },
        {
            "doubleSided" : true,
            "name" : "plate3Material",
            "pbrMetallicRoughness" : {
                "baseColorFactor" : [
                    0.6151774525642395,
                    0.4423656761646271,
                    0.3583069443702698,
                    1
                ],
                "metallicFactor" : 0,
                "roughnessFactor" : 0.5
            }
        },
        {
            "doubleSided" : true,
            "name" : "forkMaterial",
            "pbrMetallicRoughness" : {
                "baseColorFactor" : [
                    0.800000011920929,
                    0.800000011920929,
                    0.800000011920929,
                    1
                ],
                "roughnessFactor" : 0.5
            }
        }
    ],
    "meshes" : [
        {
            "name" : "Cylinder.006",
            "primitives" : [
                {
                    "attributes" : {
                        "POSITION" : 0,
                        "NORMAL" : 1,
                        "TEXCOORD_0" : 2
                    },
                    "indices" : 3,
                    "material" : 0
                },
                {
                    "attributes" : {
                        "POSITION" : 4,
                        "NORMAL" : 5,
                        "TEXCOORD_0" : 6
                    },
                    "indices" : 7,
                    "material" : 1
                },
                {
                    "attributes" : {
                        "POSITION" : 8,
                        "NORMAL" : 9,
                        "TEXCOORD_0" : 10
                    },
                    "indices" : 11,
                    "material" : 2
                },
                {
                    "attributes" : {
                        "POSITION" : 12,
                        "NORMAL" : 13,
                        "TEXCOORD_0" : 14
                    },
                    "indices" : 15,
                    "material" : 3
                }
            ]
        }
    ],
    "accessors" : [
        {
            "bufferView" : 0,
            "componentType" : 5126,
            "count" : 6046,
            "max" : [
                -0.7997719049453735,
                0.5210764408111572,
                0.02189384587109089
            ],
            "min" : [
                -1.5632774829864502,
                0.182460755109787,
                -0.45488491654396057
            ],
            "type" : "VEC3"
        },
        {
            "bufferView" : 1,
            "componentType" : 5126,
            "count" : 6046,
            "type" : "VEC3"
        },
        {
            "bufferView" : 2,
            "componentType" : 5126,
            "count" : 6046,
            "type" : "VEC2"
        },
        {
            "bufferView" : 3,
            "componentType" : 5123,
            "count" : 22188,
            "type" : "SCALAR"
        },
        {
            "bufferView" : 4,
            "componentType" : 5126,
            "count" : 1934,
            "max" : [
                -0.7997719049453735,
                0.45265963673591614,
                0.11776503920555115
            ],
            "min" : [
                -1.5632774829864502,
                0.1967049092054367,
                -0.45488491654396057
            ],
            "type" : "VEC3"
        },
        {
            "bufferView" : 5,
            "componentType" : 5126,
            "count" : 1934,
            "type" : "VEC3"
        },
        {
            "bufferView" : 6,
            "componentType" : 5126,
            "count" : 1934,
            "type" : "VEC2"
        },
        {
            "bufferView" : 7,
            "componentType" : 5123,
            "count" : 6852,
            "type" : "SCALAR"
        },
        {
            "bufferView" : 8,
            "componentType" : 5126,
            "count" : 2780,
            "max" : [
                -0.7997719049453735,
                0.33637407422065735,
                0.08844388276338577
            ],
            "min" : [
                -1.5632774829864502,
                0.1967049092054367,
                -0.45488491654396057
            ],
            "type" : "VEC3"
        },
        {
            "bufferView" : 9,
            "componentType" : 5126,
            "count" : 2780,
            "type" : "VEC3"
        },
        {
            "bufferView" : 10,
            "componentType" : 5126,
            "count" : 2780,
            "type" : "VEC2"
        },
        {
            "bufferView" : 11,
            "componentType" : 5123,
            "count" : 9720,
            "type" : "SCALAR"
        },
        {
            "bufferView" : 12,
            "componentType" : 5126,
            "count" : 1315,
            "max" : [
                -0.7710937261581421,
                0.2092399001121521,
                0.23687879741191864
            ],
            "min" : [
                -0.9250391721725464,
                0.19927236437797546,
                -0.024169176816940308
            ],
            "type" : "VEC3"
        },
        {
            "bufferView" : 13,
            "componentType" : 5126,
            "count" : 1315,
            "type" : "VEC3"
        },
        {
            "bufferView" : 14,
            "componentType" : 5126,
            "count" : 1315,
            "type" : "VEC2"
        },
        {
            "bufferView" : 15,
            "componentType" : 5123,
            "count" : 3240,
            "type" : "SCALAR"
        }
    ],
    "bufferViews" : [
        {
            "buffer" : 0,
            "byteLength" : 72552,
            "byteOffset" : 0
        },
        {
            "buffer" : 0,
            "byteLength" : 72552,
            "byteOffset" : 72552
        },
        {
            "buffer" : 0,
            "byteLength" : 48368,
            "byteOffset" : 145104
        },
        {
            "buffer" : 0,
            "byteLength" : 44376,
            "byteOffset" : 193472
        },
        {
            "buffer" : 0,
            "byteLength" : 23208,
            "byteOffset" : 237848
        },
        {
            "buffer" : 0,
            "byteLength" : 23208,
            "byteOffset" : 261056
        },
        {
            "buffer" : 0,
            "byteLength" : 15472,
            "byteOffset" : 284264
        },
        {
            "buffer" : 0,
            "byteLength" : 13704,
            "byteOffset" : 299736
        },
        {
            "buffer" : 0,
            "byteLength" : 33360,
            "byteOffset" : 313440
        },
        {
            "buffer" : 0,
            "byteLength" : 33360,
            "byteOffset" : 346800
        },
        {
            "buffer" : 0,
            "byteLength" : 22240,
            "byteOffset" : 380160
        },
        {
            "buffer" : 0,
            "byteLength" : 19440,
            "byteOffset" : 402400
        },
        {
            "buffer" : 0,
            "byteLength" : 15780,
            "byteOffset" : 421840
        },
        {
            "buffer" : 0,
            "byteLength" : 15780,
            "byteOffset" : 437620
        },
        {
            "buffer" : 0,
            "byteLength" : 10520,
            "byteOffset" : 453400
        },
        {
            "buffer" : 0,
            "byteLength" : 6480,
            "byteOffset" : 463920
        }
    ],
    "buffers" : [
        {
            "byteLength" : 470400,
            "uri" : "data:application/octet-stream;base64,"
        }
    ]
}
