{
    "asset" : {
        "generator" : "Khronos glTF Blender I/O v1.6.16",
        "version" : "2.0"
    },
    "scene" : 0,
    "scenes" : [
        {
            "name" : "Scene",
            "nodes" : [
                0
            ]
        }
    ],
    "nodes" : [
        {
            "mesh" : 0,
            "name" : "bathroomDoor",
            "translation" : [
                0.5996721982955933,
                2.2368218898773193,
                0.965484619140625
            ]
        }
    ],
    "animations" : [
        {
            "channels" : [
                {
                    "sampler" : 0,
                    "target" : {
                        "node" : 0,
                        "path" : "rotation"
                    }
                }
            ],
            "name" : "door3Action",
            "samplers" : [
                {
                    "input" : 8,
                    "interpolation" : "LINEAR",
                    "output" : 9
                }
            ]
        }
    ],
    "materials" : [
        {
            "doubleSided" : true,
            "name" : "door3Material",
            "pbrMetallicRoughness" : {
                "baseColorFactor" : [
                    0.253213495016098,
                    0.28446149826049805,
                    0.3108133375644684,
                    1
                ],
                "metallicFactor" : 0,
                "roughnessFactor" : 0.5
            }
        },
        {
            "doubleSided" : true,
            "name" : "doorMetalMateiral",
            "pbrMetallicRoughness" : {
                "baseColorFactor" : [
                    0.23301556706428528,
                    0.19388921558856964,
                    0.18813693523406982,
                    1
                ],
                "roughnessFactor" : 0.8235293626785278
            }
        }
    ],
    "meshes" : [
        {
            "name" : "Cube.023",
            "primitives" : [
                {
                    "attributes" : {
                        "POSITION" : 0,
                        "NORMAL" : 1,
                        "TEXCOORD_0" : 2
                    },
                    "indices" : 3,
                    "material" : 0
                },
                {
                    "attributes" : {
                        "POSITION" : 4,
                        "NORMAL" : 5,
                        "TEXCOORD_0" : 6
                    },
                    "indices" : 7,
                    "material" : 1
                }
            ]
        }
    ],
    "accessors" : [
        {
            "bufferView" : 0,
            "componentType" : 5126,
            "count" : 1292,
            "max" : [
                -0.007515549659729004,
                0.3021211624145508,
                0.009300865232944489
            ],
            "min" : [
                -1.1980756521224976,
                -2.221177577972412,
                -0.08244875818490982
            ],
            "type" : "VEC3"
        },
        {
            "bufferView" : 1,
            "componentType" : 5126,
            "count" : 1292,
            "type" : "VEC3"
        },
        {
            "bufferView" : 2,
            "componentType" : 5126,
            "count" : 1292,
            "type" : "VEC2"
        },
        {
            "bufferView" : 3,
            "componentType" : 5123,
            "count" : 2076,
            "type" : "SCALAR"
        },
        {
            "bufferView" : 4,
            "componentType" : 5126,
            "count" : 424,
            "max" : [
                0.01440572738647461,
                -6.592273712158203e-05,
                0.07552246749401093
            ],
            "min" : [
                -1.1765491962432861,
                -1.699947476387024,
                -0.1486702859401703
            ],
            "type" : "VEC3"
        },
        {
            "bufferView" : 5,
            "componentType" : 5126,
            "count" : 424,
            "type" : "VEC3"
        },
        {
            "bufferView" : 6,
            "componentType" : 5126,
            "count" : 424,
            "type" : "VEC2"
        },
        {
            "bufferView" : 7,
            "componentType" : 5123,
            "count" : 2382,
            "type" : "SCALAR"
        },
        {
            "bufferView" : 8,
            "componentType" : 5126,
            "count" : 50,
            "max" : [
                2.0833333333333335
            ],
            "min" : [
                0.041666666666666664
            ],
            "type" : "SCALAR"
        },
        {
            "bufferView" : 9,
            "componentType" : 5126,
            "count" : 50,
            "type" : "VEC4"
        }
    ],
    "bufferViews" : [
        {
            "buffer" : 0,
            "byteLength" : 15504,
            "byteOffset" : 0
        },
        {
            "buffer" : 0,
            "byteLength" : 15504,
            "byteOffset" : 15504
        },
        {
            "buffer" : 0,
            "byteLength" : 10336,
            "byteOffset" : 31008
        },
        {
            "buffer" : 0,
            "byteLength" : 4152,
            "byteOffset" : 41344
        },
        {
            "buffer" : 0,
            "byteLength" : 5088,
            "byteOffset" : 45496
        },
        {
            "buffer" : 0,
            "byteLength" : 5088,
            "byteOffset" : 50584
        },
        {
            "buffer" : 0,
            "byteLength" : 3392,
            "byteOffset" : 55672
        },
        {
            "buffer" : 0,
            "byteLength" : 4764,
            "byteOffset" : 59064
        },
        {
            "buffer" : 0,
            "byteLength" : 200,
            "byteOffset" : 63828
        },
        {
            "buffer" : 0,
            "byteLength" : 800,
            "byteOffset" : 64028
        }
    ],
    "buffers" : [
        {
            "byteLength" : 64828,
            "uri" : "data:application/octet-stream;base64,"
        }
    ]
}
