{
    "asset" : {
        "generator" : "Khronos glTF Blender I/O v1.6.16",
        "version" : "2.0"
    },
    "scene" : 0,
    "scenes" : [
        {
            "name" : "Scene",
            "nodes" : [
                0
            ]
        }
    ],
    "nodes" : [
        {
            "mesh" : 0,
            "name" : "Plane.001",
            "translation" : [
                -4.757935047149658,
                0.8699613213539124,
                5.871947288513184
            ]
        }
    ],
    "materials" : [
        {
            "doubleSided" : true,
            "name" : "book6Material",
            "pbrMetallicRoughness" : {
                "baseColorFactor" : [
                    0.10247354209423065,
                    0.10247354209423065,
                    0.10247354209423065,
                    1
                ],
                "metallicFactor" : 0
            }
        },
        {
            "doubleSided" : true,
            "name" : "bookMaterial2",
            "pbrMetallicRoughness" : {
                "baseColorFactor" : [
                    0.800000011920929,
                    0.800000011920929,
                    0.800000011920929,
                    1
                ],
                "metallicFactor" : 0
            }
        }
    ],
    "meshes" : [
        {
            "name" : "Plane.022",
            "primitives" : [
                {
                    "attributes" : {
                        "POSITION" : 0,
                        "NORMAL" : 1,
                        "TEXCOORD_0" : 2
                    },
                    "indices" : 3,
                    "material" : 0
                },
                {
                    "attributes" : {
                        "POSITION" : 4,
                        "NORMAL" : 5,
                        "TEXCOORD_0" : 6
                    },
                    "indices" : 7,
                    "material" : 1
                }
            ]
        }
    ],
    "accessors" : [
        {
            "bufferView" : 0,
            "componentType" : 5126,
            "count" : 166,
            "max" : [
                0.17881688475608826,
                0.005362128373235464,
                0.2511703670024872
            ],
            "min" : [
                -0.17881688475608826,
                -0.008054017089307308,
                -0.2511703670024872
            ],
            "type" : "VEC3"
        },
        {
            "bufferView" : 1,
            "componentType" : 5126,
            "count" : 166,
            "type" : "VEC3"
        },
        {
            "bufferView" : 2,
            "componentType" : 5126,
            "count" : 166,
            "type" : "VEC2"
        },
        {
            "bufferView" : 3,
            "componentType" : 5123,
            "count" : 252,
            "type" : "SCALAR"
        },
        {
            "bufferView" : 4,
            "componentType" : 5126,
            "count" : 254,
            "max" : [
                0.174007847905159,
                0.03331003710627556,
                0.24343723058700562
            ],
            "min" : [
                -0.174007847905159,
                -0.0025271011982113123,
                -0.24343723058700562
            ],
            "type" : "VEC3"
        },
        {
            "bufferView" : 5,
            "componentType" : 5126,
            "count" : 254,
            "type" : "VEC3"
        },
        {
            "bufferView" : 6,
            "componentType" : 5126,
            "count" : 254,
            "type" : "VEC2"
        },
        {
            "bufferView" : 7,
            "componentType" : 5123,
            "count" : 444,
            "type" : "SCALAR"
        }
    ],
    "bufferViews" : [
        {
            "buffer" : 0,
            "byteLength" : 1992,
            "byteOffset" : 0
        },
        {
            "buffer" : 0,
            "byteLength" : 1992,
            "byteOffset" : 1992
        },
        {
            "buffer" : 0,
            "byteLength" : 1328,
            "byteOffset" : 3984
        },
        {
            "buffer" : 0,
            "byteLength" : 504,
            "byteOffset" : 5312
        },
        {
            "buffer" : 0,
            "byteLength" : 3048,
            "byteOffset" : 5816
        },
        {
            "buffer" : 0,
            "byteLength" : 3048,
            "byteOffset" : 8864
        },
        {
            "buffer" : 0,
            "byteLength" : 2032,
            "byteOffset" : 11912
        },
        {
            "buffer" : 0,
            "byteLength" : 888,
            "byteOffset" : 13944
        }
    ],
    "buffers" : [
        {
            "byteLength" : 14832,
            "uri" : "data:application/octet-stream;base64,"
        }
    ]
}
