{
    "asset" : {
        "generator" : "Khronos glTF Blender I/O v1.6.16",
        "version" : "2.0"
    },
    "scene" : 0,
    "scenes" : [
        {
            "name" : "Scene",
            "nodes" : [
                0
            ]
        }
    ],
    "nodes" : [
        {
            "mesh" : 0,
            "name" : "chair",
            "rotation" : [
                0,
                0.6970335841178894,
                0,
                -0.7170385122299194
            ],
            "translation" : [
                -4.299753189086914,
                0.5420072078704834,
                5.500558853149414
            ]
        }
    ],
    "materials" : [
        {
            "doubleSided" : true,
            "name" : "chairMaterial",
            "pbrMetallicRoughness" : {
                "baseColorFactor" : [
                    0.20943774282932281,
                    0.2330152839422226,
                    0.21959592401981354,
                    1
                ],
                "metallicFactor" : 0,
                "roughnessFactor" : 0.9558823704719543
            }
        }
    ],
    "meshes" : [
        {
            "name" : "Cube.006",
            "primitives" : [
                {
                    "attributes" : {
                        "POSITION" : 0,
                        "NORMAL" : 1,
                        "TEXCOORD_0" : 2
                    },
                    "indices" : 3,
                    "material" : 0
                }
            ]
        }
    ],
    "accessors" : [
        {
            "bufferView" : 0,
            "componentType" : 5126,
            "count" : 4045,
            "max" : [
                0.45306921005249023,
                0.66620934009552,
                0.4417971968650818
            ],
            "min" : [
                -0.390106201171875,
                -0.5420069098472595,
                -0.403734028339386
            ],
            "type" : "VEC3"
        },
        {
            "bufferView" : 1,
            "componentType" : 5126,
            "count" : 4045,
            "type" : "VEC3"
        },
        {
            "bufferView" : 2,
            "componentType" : 5126,
            "count" : 4045,
            "type" : "VEC2"
        },
        {
            "bufferView" : 3,
            "componentType" : 5123,
            "count" : 13596,
            "type" : "SCALAR"
        }
    ],
    "bufferViews" : [
        {
            "buffer" : 0,
            "byteLength" : 48540,
            "byteOffset" : 0
        },
        {
            "buffer" : 0,
            "byteLength" : 48540,
            "byteOffset" : 48540
        },
        {
            "buffer" : 0,
            "byteLength" : 32360,
            "byteOffset" : 97080
        },
        {
            "buffer" : 0,
            "byteLength" : 27192,
            "byteOffset" : 129440
        }
    ],
    "buffers" : [
        {
            "byteLength" : 156632,
            "uri" : "data:application/octet-stream;base64,"
        }
    ]
}
