{
    "asset" : {
        "generator" : "Khronos glTF Blender I/O v1.6.16",
        "version" : "2.0"
    },
    "scene" : 0,
    "scenes" : [
        {
            "name" : "Scene",
            "nodes" : [
                0,
                1,
                2
            ]
        }
    ],
    "nodes" : [
        {
            "mesh" : 0,
            "name" : "ThermalPrinter",
            "scale" : [
                1.5272159576416016,
                1.5272159576416016,
                1.5272159576416016
            ],
            "translation" : [
                -2.4516234397888184,
                -0.14865447580814362,
                3.3391237258911133
            ]
        },
        {
            "mesh" : 1,
            "name" : "ThermalPrinterBoard",
            "scale" : [
                1.5272159576416016,
                1.5272159576416016,
                1.5272159576416016
            ],
            "translation" : [
                -2.588819980621338,
                -0.14777083694934845,
                3.405724048614502
            ]
        },
        {
            "mesh" : 2,
            "name" : "USBCable",
            "scale" : [
                1.5272159576416016,
                1.5272159576416016,
                1.5272159576416016
            ],
            "translation" : [
                -2.4453563690185547,
                -0.14865447580814362,
                3.3391237258911133
            ]
        }
    ],
    "materials" : [
        {
            "doubleSided" : true,
            "name" : "thermalPrinterMaterial",
            "pbrMetallicRoughness" : {
                "baseColorFactor" : [
                    0.0071935709565877914,
                    0.0071935709565877914,
                    0.0071935709565877914,
                    1
                ],
                "metallicFactor" : 0
            }
        },
        {
            "doubleSided" : true,
            "emissiveFactor" : [
                0.06071959808468819,
                0.0010556546039879322,
                0.002587392693385482
            ],
            "name" : "thermalPrinterLightMaterial",
            "pbrMetallicRoughness" : {
                "baseColorFactor" : [
                    0.16264207661151886,
                    0,
                    0,
                    1
                ],
                "metallicFactor" : 0
            }
        },
        {
            "doubleSided" : true,
            "name" : "boardMaterial",
            "pbrMetallicRoughness" : {
                "baseColorFactor" : [
                    0.03551404923200607,
                    0.0908380076289177,
                    0.03499826043844223,
                    1
                ],
                "metallicFactor" : 0
            }
        },
        {
            "doubleSided" : true,
            "name" : "boardChipMaterial",
            "pbrMetallicRoughness" : {
                "baseColorFactor" : [
                    0.25979867577552795,
                    0.25979867577552795,
                    0.25979867577552795,
                    1
                ],
                "roughnessFactor" : 0.5
            }
        },
        {
            "doubleSided" : true,
            "name" : "boardPlasticMaterial",
            "pbrMetallicRoughness" : {
                "baseColorFactor" : [
                    0,
                    0,
                    0,
                    1
                ],
                "metallicFactor" : 0,
                "roughnessFactor" : 0.8602941036224365
            }
        },
        {
            "doubleSided" : true,
            "name" : "boardPlastic2Material",
            "pbrMetallicRoughness" : {
                "baseColorFactor" : [
                    0.8000000715255737,
                    0.7022529244422913,
                    0.5518839359283447,
                    1
                ],
                "metallicFactor" : 0,
                "roughnessFactor" : 0.5
            }
        }
    ],
    "meshes" : [
        {
            "name" : "Cube.009",
            "primitives" : [
                {
                    "attributes" : {
                        "POSITION" : 0,
                        "NORMAL" : 1,
                        "TEXCOORD_0" : 2
                    },
                    "indices" : 3,
                    "material" : 0
                },
                {
                    "attributes" : {
                        "POSITION" : 4,
                        "NORMAL" : 5,
                        "TEXCOORD_0" : 6
                    },
                    "indices" : 7,
                    "material" : 1
                }
            ]
        },
        {
            "name" : "Plane.012",
            "primitives" : [
                {
                    "attributes" : {
                        "POSITION" : 8,
                        "NORMAL" : 9,
                        "TEXCOORD_0" : 10
                    },
                    "indices" : 11,
                    "material" : 2
                },
                {
                    "attributes" : {
                        "POSITION" : 12,
                        "NORMAL" : 13,
                        "TEXCOORD_0" : 14
                    },
                    "indices" : 15,
                    "material" : 3
                },
                {
                    "attributes" : {
                        "POSITION" : 16,
                        "NORMAL" : 17,
                        "TEXCOORD_0" : 18
                    },
                    "indices" : 19,
                    "material" : 4
                },
                {
                    "attributes" : {
                        "POSITION" : 20,
                        "NORMAL" : 21,
                        "TEXCOORD_0" : 22
                    },
                    "indices" : 23,
                    "material" : 5
                }
            ]
        },
        {
            "name" : "Cube.018",
            "primitives" : [
                {
                    "attributes" : {
                        "POSITION" : 24,
                        "NORMAL" : 25,
                        "TEXCOORD_0" : 26
                    },
                    "indices" : 27,
                    "material" : 3
                },
                {
                    "attributes" : {
                        "POSITION" : 28,
                        "NORMAL" : 29,
                        "TEXCOORD_0" : 30
                    },
                    "indices" : 31,
                    "material" : 4
                }
            ]
        }
    ],
    "accessors" : [
        {
            "bufferView" : 0,
            "componentType" : 5126,
            "count" : 645,
            "max" : [
                0.04572899267077446,
                0.03029821254312992,
                0.03275785595178604
            ],
            "min" : [
                -0.04572900012135506,
                -0.028219442814588547,
                -0.032757699489593506
            ],
            "type" : "VEC3"
        },
        {
            "bufferView" : 1,
            "componentType" : 5126,
            "count" : 645,
            "type" : "VEC3"
        },
        {
            "bufferView" : 2,
            "componentType" : 5126,
            "count" : 645,
            "type" : "VEC2"
        },
        {
            "bufferView" : 3,
            "componentType" : 5123,
            "count" : 1236,
            "type" : "SCALAR"
        },
        {
            "bufferView" : 4,
            "componentType" : 5126,
            "count" : 12,
            "max" : [
                -0.0364086776971817,
                0.03017900139093399,
                0.030395086854696274
            ],
            "min" : [
                -0.040391165763139725,
                0.03017900139093399,
                0.0264125969260931
            ],
            "type" : "VEC3"
        },
        {
            "bufferView" : 5,
            "componentType" : 5126,
            "count" : 12,
            "type" : "VEC3"
        },
        {
            "bufferView" : 6,
            "componentType" : 5126,
            "count" : 12,
            "type" : "VEC2"
        },
        {
            "bufferView" : 7,
            "componentType" : 5123,
            "count" : 30,
            "type" : "SCALAR"
        },
        {
            "bufferView" : 8,
            "componentType" : 5126,
            "count" : 48,
            "max" : [
                0.009716697037220001,
                0.001212463597767055,
                0.03670395538210869
            ],
            "min" : [
                -0.04765225946903229,
                0,
                -0.014221195131540298
            ],
            "type" : "VEC3"
        },
        {
            "bufferView" : 9,
            "componentType" : 5126,
            "count" : 48,
            "type" : "VEC3"
        },
        {
            "bufferView" : 10,
            "componentType" : 5126,
            "count" : 48,
            "type" : "VEC2"
        },
        {
            "bufferView" : 11,
            "componentType" : 5123,
            "count" : 84,
            "type" : "SCALAR"
        },
        {
            "bufferView" : 12,
            "componentType" : 5126,
            "count" : 828,
            "max" : [
                0.008774775080382824,
                0.011132042855024338,
                0.03401254490017891
            ],
            "min" : [
                -0.04135337471961975,
                0.0012124618515372276,
                -0.013299571350216866
            ],
            "type" : "VEC3"
        },
        {
            "bufferView" : 13,
            "componentType" : 5126,
            "count" : 828,
            "type" : "VEC3"
        },
        {
            "bufferView" : 14,
            "componentType" : 5126,
            "count" : 828,
            "type" : "VEC2"
        },
        {
            "bufferView" : 15,
            "componentType" : 5123,
            "count" : 1284,
            "type" : "SCALAR"
        },
        {
            "bufferView" : 16,
            "componentType" : 5126,
            "count" : 258,
            "max" : [
                -0.010724720545113087,
                0.00454587209969759,
                0.035078246146440506
            ],
            "min" : [
                -0.04517926275730133,
                0.0012124618515372276,
                -0.014517721720039845
            ],
            "type" : "VEC3"
        },
        {
            "bufferView" : 17,
            "componentType" : 5126,
            "count" : 258,
            "type" : "VEC3"
        },
        {
            "bufferView" : 18,
            "componentType" : 5126,
            "count" : 258,
            "type" : "VEC2"
        },
        {
            "bufferView" : 19,
            "componentType" : 5123,
            "count" : 396,
            "type" : "SCALAR"
        },
        {
            "bufferView" : 20,
            "componentType" : 5126,
            "count" : 48,
            "max" : [
                -0.019693180918693542,
                0.004196383059024811,
                0.018724733963608742
            ],
            "min" : [
                -0.045011669397354126,
                0.0012124618515372276,
                -0.013299571350216866
            ],
            "type" : "VEC3"
        },
        {
            "bufferView" : 21,
            "componentType" : 5126,
            "count" : 48,
            "type" : "VEC3"
        },
        {
            "bufferView" : 22,
            "componentType" : 5126,
            "count" : 48,
            "type" : "VEC2"
        },
        {
            "bufferView" : 23,
            "componentType" : 5123,
            "count" : 96,
            "type" : "SCALAR"
        },
        {
            "bufferView" : 24,
            "componentType" : 5126,
            "count" : 20,
            "max" : [
                -0.08469484746456146,
                0.011102007701992989,
                0.06047375500202179
            ],
            "min" : [
                -0.09364788979291916,
                0.007359483279287815,
                0.04902220517396927
            ],
            "type" : "VEC3"
        },
        {
            "bufferView" : 25,
            "componentType" : 5126,
            "count" : 20,
            "type" : "VEC3"
        },
        {
            "bufferView" : 26,
            "componentType" : 5126,
            "count" : 20,
            "type" : "VEC2"
        },
        {
            "bufferView" : 27,
            "componentType" : 5123,
            "count" : 30,
            "type" : "SCALAR"
        },
        {
            "bufferView" : 28,
            "componentType" : 5126,
            "count" : 430,
            "max" : [
                0.035224854946136475,
                0.011873172596096992,
                0.12425290048122406
            ],
            "min" : [
                -0.08469484746456146,
                -0.048723842948675156,
                0.02432960644364357
            ],
            "type" : "VEC3"
        },
        {
            "bufferView" : 29,
            "componentType" : 5126,
            "count" : 430,
            "type" : "VEC3"
        },
        {
            "bufferView" : 30,
            "componentType" : 5126,
            "count" : 430,
            "type" : "VEC2"
        },
        {
            "bufferView" : 31,
            "componentType" : 5123,
            "count" : 1950,
            "type" : "SCALAR"
        }
    ],
    "bufferViews" : [
        {
            "buffer" : 0,
            "byteLength" : 7740,
            "byteOffset" : 0
        },
        {
            "buffer" : 0,
            "byteLength" : 7740,
            "byteOffset" : 7740
        },
        {
            "buffer" : 0,
            "byteLength" : 5160,
            "byteOffset" : 15480
        },
        {
            "buffer" : 0,
            "byteLength" : 2472,
            "byteOffset" : 20640
        },
        {
            "buffer" : 0,
            "byteLength" : 144,
            "byteOffset" : 23112
        },
        {
            "buffer" : 0,
            "byteLength" : 144,
            "byteOffset" : 23256
        },
        {
            "buffer" : 0,
            "byteLength" : 96,
            "byteOffset" : 23400
        },
        {
            "buffer" : 0,
            "byteLength" : 60,
            "byteOffset" : 23496
        },
        {
            "buffer" : 0,
            "byteLength" : 576,
            "byteOffset" : 23556
        },
        {
            "buffer" : 0,
            "byteLength" : 576,
            "byteOffset" : 24132
        },
        {
            "buffer" : 0,
            "byteLength" : 384,
            "byteOffset" : 24708
        },
        {
            "buffer" : 0,
            "byteLength" : 168,
            "byteOffset" : 25092
        },
        {
            "buffer" : 0,
            "byteLength" : 9936,
            "byteOffset" : 25260
        },
        {
            "buffer" : 0,
            "byteLength" : 9936,
            "byteOffset" : 35196
        },
        {
            "buffer" : 0,
            "byteLength" : 6624,
            "byteOffset" : 45132
        },
        {
            "buffer" : 0,
            "byteLength" : 2568,
            "byteOffset" : 51756
        },
        {
            "buffer" : 0,
            "byteLength" : 3096,
            "byteOffset" : 54324
        },
        {
            "buffer" : 0,
            "byteLength" : 3096,
            "byteOffset" : 57420
        },
        {
            "buffer" : 0,
            "byteLength" : 2064,
            "byteOffset" : 60516
        },
        {
            "buffer" : 0,
            "byteLength" : 792,
            "byteOffset" : 62580
        },
        {
            "buffer" : 0,
            "byteLength" : 576,
            "byteOffset" : 63372
        },
        {
            "buffer" : 0,
            "byteLength" : 576,
            "byteOffset" : 63948
        },
        {
            "buffer" : 0,
            "byteLength" : 384,
            "byteOffset" : 64524
        },
        {
            "buffer" : 0,
            "byteLength" : 192,
            "byteOffset" : 64908
        },
        {
            "buffer" : 0,
            "byteLength" : 240,
            "byteOffset" : 65100
        },
        {
            "buffer" : 0,
            "byteLength" : 240,
            "byteOffset" : 65340
        },
        {
            "buffer" : 0,
            "byteLength" : 160,
            "byteOffset" : 65580
        },
        {
            "buffer" : 0,
            "byteLength" : 60,
            "byteOffset" : 65740
        },
        {
            "buffer" : 0,
            "byteLength" : 5160,
            "byteOffset" : 65800
        },
        {
            "buffer" : 0,
            "byteLength" : 5160,
            "byteOffset" : 70960
        },
        {
            "buffer" : 0,
            "byteLength" : 3440,
            "byteOffset" : 76120
        },
        {
            "buffer" : 0,
            "byteLength" : 3900,
            "byteOffset" : 79560
        }
    ],
    "buffers" : [
        {
            "byteLength" : 83460,
            "uri" : "thermalPrinter.bin"
        }
    ]
}
