{
    "asset" : {
        "generator" : "Khronos glTF Blender I/O v1.6.16",
        "version" : "2.0"
    },
    "scene" : 0,
    "scenes" : [
        {
            "name" : "Scene",
            "nodes" : [
                0,
                1
            ]
        }
    ],
    "nodes" : [
        {
            "mesh" : 0,
            "name" : "Asagao Export.004",
            "rotation" : [
                0.27390146255493164,
                0.6519033312797546,
                -0.6519033908843994,
                0.27390146255493164
            ],
            "scale" : [
                0.16430170834064484,
                0.16430170834064484,
                0.16430170834064484
            ],
            "translation" : [
                -2.064765453338623,
                1.1081202030181885,
                6.855443954467773
            ]
        },
        {
            "mesh" : 1,
            "name" : "Asagao Export.006",
            "rotation" : [
                -0.31256601214408875,
                0.6342731714248657,
                -0.6342732906341553,
                -0.31256595253944397
            ],
            "scale" : [
                0.16430170834064484,
                0.16430170834064484,
                0.16430170834064484
            ],
            "translation" : [
                2.374300956726074,
                1.7054226398468018,
                -0.2210589200258255
            ]
        }
    ],
    "animations" : [
        {
            "channels" : [
                {
                    "sampler" : 0,
                    "target" : {
                        "node" : 0,
                        "path" : "translation"
                    }
                },
                {
                    "sampler" : 1,
                    "target" : {
                        "node" : 0,
                        "path" : "rotation"
                    }
                },
                {
                    "sampler" : 2,
                    "target" : {
                        "node" : 0,
                        "path" : "scale"
                    }
                }
            ],
            "name" : "Asagao Export.004Action",
            "samplers" : [
                {
                    "input" : 22,
                    "interpolation" : "STEP",
                    "output" : 23
                },
                {
                    "input" : 22,
                    "interpolation" : "STEP",
                    "output" : 24
                },
                {
                    "input" : 22,
                    "interpolation" : "STEP",
                    "output" : 25
                }
            ]
        },
        {
            "channels" : [
                {
                    "sampler" : 0,
                    "target" : {
                        "node" : 1,
                        "path" : "translation"
                    }
                },
                {
                    "sampler" : 1,
                    "target" : {
                        "node" : 1,
                        "path" : "rotation"
                    }
                },
                {
                    "sampler" : 2,
                    "target" : {
                        "node" : 1,
                        "path" : "scale"
                    }
                }
            ],
            "name" : "Asagao Export.006Action",
            "samplers" : [
                {
                    "input" : 22,
                    "interpolation" : "STEP",
                    "output" : 26
                },
                {
                    "input" : 22,
                    "interpolation" : "STEP",
                    "output" : 27
                },
                {
                    "input" : 22,
                    "interpolation" : "STEP",
                    "output" : 28
                }
            ]
        }
    ],
    "materials" : [
        {
            "doubleSided" : true,
            "name" : "Leaf.004",
            "pbrMetallicRoughness" : {
                "baseColorFactor" : [
                    0.20749883353710175,
                    0.24909859895706177,
                    0.15940231084823608,
                    1
                ],
                "metallicFactor" : 0,
                "roughnessFactor" : 0.663636326789856
            }
        },
        {
            "doubleSided" : true,
            "name" : "Material.009",
            "pbrMetallicRoughness" : {
                "baseColorFactor" : [
                    0.15222345292568207,
                    0.11467188596725464,
                    0.2330154925584793,
                    1
                ],
                "metallicFactor" : 0,
                "roughnessFactor" : 0.6470588445663452
            }
        },
        {
            "doubleSided" : true,
            "name" : "Material.010",
            "pbrMetallicRoughness" : {
                "baseColorFactor" : [
                    1,
                    0.9179586172103882,
                    0.5130308270454407,
                    1
                ],
                "metallicFactor" : 0,
                "roughnessFactor" : 0.5
            }
        }
    ],
    "meshes" : [
        {
            "name" : "Plane.033",
            "primitives" : [
                {
                    "attributes" : {
                        "POSITION" : 0,
                        "NORMAL" : 1,
                        "TEXCOORD_0" : 2
                    },
                    "indices" : 3,
                    "material" : 0
                },
                {
                    "attributes" : {
                        "POSITION" : 4,
                        "NORMAL" : 5,
                        "TEXCOORD_0" : 6
                    },
                    "indices" : 7,
                    "material" : 1
                },
                {
                    "attributes" : {
                        "POSITION" : 8,
                        "NORMAL" : 9,
                        "TEXCOORD_0" : 10
                    },
                    "indices" : 11,
                    "material" : 2
                }
            ]
        },
        {
            "name" : "Plane.040",
            "primitives" : [
                {
                    "attributes" : {
                        "POSITION" : 12,
                        "NORMAL" : 13,
                        "TEXCOORD_0" : 14
                    },
                    "indices" : 15,
                    "material" : 0
                },
                {
                    "attributes" : {
                        "POSITION" : 16,
                        "NORMAL" : 17,
                        "TEXCOORD_0" : 18
                    },
                    "indices" : 7,
                    "material" : 1
                },
                {
                    "attributes" : {
                        "POSITION" : 19,
                        "NORMAL" : 20,
                        "TEXCOORD_0" : 21
                    },
                    "indices" : 11,
                    "material" : 2
                }
            ]
        }
    ],
    "accessors" : [
        {
            "bufferView" : 0,
            "componentType" : 5126,
            "count" : 9049,
            "max" : [
                0.4956393241882324,
                0.5644357800483704,
                -0.010950922966003418
            ],
            "min" : [
                -0.7988238334655762,
                -0.5824609398841858,
                -6.318631649017334
            ],
            "type" : "VEC3"
        },
        {
            "bufferView" : 1,
            "componentType" : 5126,
            "count" : 9049,
            "type" : "VEC3"
        },
        {
            "bufferView" : 2,
            "componentType" : 5126,
            "count" : 9049,
            "type" : "VEC2"
        },
        {
            "bufferView" : 3,
            "componentType" : 5123,
            "count" : 33360,
            "type" : "SCALAR"
        },
        {
            "bufferView" : 4,
            "componentType" : 5126,
            "count" : 360,
            "max" : [
                0.668060302734375,
                0.8187951445579529,
                -1.3958584070205688
            ],
            "min" : [
                -0.422051340341568,
                0.03425295650959015,
                -5.816058158874512
            ],
            "type" : "VEC3"
        },
        {
            "bufferView" : 5,
            "componentType" : 5126,
            "count" : 360,
            "type" : "VEC3"
        },
        {
            "bufferView" : 6,
            "componentType" : 5126,
            "count" : 360,
            "type" : "VEC2"
        },
        {
            "bufferView" : 7,
            "componentType" : 5123,
            "count" : 1728,
            "type" : "SCALAR"
        },
        {
            "bufferView" : 8,
            "componentType" : 5126,
            "count" : 477,
            "max" : [
                0.2224278450012207,
                0.44844627380371094,
                -1.7493233680725098
            ],
            "min" : [
                -0.10806454718112946,
                0.06676312536001205,
                -5.374423027038574
            ],
            "type" : "VEC3"
        },
        {
            "bufferView" : 9,
            "componentType" : 5126,
            "count" : 477,
            "type" : "VEC3"
        },
        {
            "bufferView" : 10,
            "componentType" : 5126,
            "count" : 477,
            "type" : "VEC2"
        },
        {
            "bufferView" : 11,
            "componentType" : 5123,
            "count" : 1971,
            "type" : "SCALAR"
        },
        {
            "bufferView" : 12,
            "componentType" : 5126,
            "count" : 8823,
            "max" : [
                0.4956393241882324,
                0.5644357800483704,
                -0.010950922966003418
            ],
            "min" : [
                -0.7312717437744141,
                -0.5824609398841858,
                -6.318631649017334
            ],
            "type" : "VEC3"
        },
        {
            "bufferView" : 13,
            "componentType" : 5126,
            "count" : 8823,
            "type" : "VEC3"
        },
        {
            "bufferView" : 14,
            "componentType" : 5126,
            "count" : 8823,
            "type" : "VEC2"
        },
        {
            "bufferView" : 15,
            "componentType" : 5123,
            "count" : 32316,
            "type" : "SCALAR"
        },
        {
            "bufferView" : 16,
            "componentType" : 5126,
            "count" : 360,
            "max" : [
                0.668060302734375,
                0.8187951445579529,
                -1.3958584070205688
            ],
            "min" : [
                -0.422051340341568,
                0.03425295650959015,
                -5.816058158874512
            ],
            "type" : "VEC3"
        },
        {
            "bufferView" : 17,
            "componentType" : 5126,
            "count" : 360,
            "type" : "VEC3"
        },
        {
            "bufferView" : 18,
            "componentType" : 5126,
            "count" : 360,
            "type" : "VEC2"
        },
        {
            "bufferView" : 19,
            "componentType" : 5126,
            "count" : 477,
            "max" : [
                0.2224278450012207,
                0.44844627380371094,
                -1.7493233680725098
            ],
            "min" : [
                -0.10806454718112946,
                0.06676312536001205,
                -5.374423027038574
            ],
            "type" : "VEC3"
        },
        {
            "bufferView" : 20,
            "componentType" : 5126,
            "count" : 477,
            "type" : "VEC3"
        },
        {
            "bufferView" : 21,
            "componentType" : 5126,
            "count" : 477,
            "type" : "VEC2"
        },
        {
            "bufferView" : 22,
            "componentType" : 5126,
            "count" : 1,
            "max" : [
                0.041666666666666664
            ],
            "min" : [
                0.041666666666666664
            ],
            "type" : "SCALAR"
        },
        {
            "bufferView" : 23,
            "componentType" : 5126,
            "count" : 1,
            "type" : "VEC3"
        },
        {
            "bufferView" : 24,
            "componentType" : 5126,
            "count" : 1,
            "type" : "VEC4"
        },
        {
            "bufferView" : 25,
            "componentType" : 5126,
            "count" : 1,
            "type" : "VEC3"
        },
        {
            "bufferView" : 26,
            "componentType" : 5126,
            "count" : 1,
            "type" : "VEC3"
        },
        {
            "bufferView" : 27,
            "componentType" : 5126,
            "count" : 1,
            "type" : "VEC4"
        },
        {
            "bufferView" : 28,
            "componentType" : 5126,
            "count" : 1,
            "type" : "VEC3"
        }
    ],
    "bufferViews" : [
        {
            "buffer" : 0,
            "byteLength" : 108588,
            "byteOffset" : 0
        },
        {
            "buffer" : 0,
            "byteLength" : 108588,
            "byteOffset" : 108588
        },
        {
            "buffer" : 0,
            "byteLength" : 72392,
            "byteOffset" : 217176
        },
        {
            "buffer" : 0,
            "byteLength" : 66720,
            "byteOffset" : 289568
        },
        {
            "buffer" : 0,
            "byteLength" : 4320,
            "byteOffset" : 356288
        },
        {
            "buffer" : 0,
            "byteLength" : 4320,
            "byteOffset" : 360608
        },
        {
            "buffer" : 0,
            "byteLength" : 2880,
            "byteOffset" : 364928
        },
        {
            "buffer" : 0,
            "byteLength" : 3456,
            "byteOffset" : 367808
        },
        {
            "buffer" : 0,
            "byteLength" : 5724,
            "byteOffset" : 371264
        },
        {
            "buffer" : 0,
            "byteLength" : 5724,
            "byteOffset" : 376988
        },
        {
            "buffer" : 0,
            "byteLength" : 3816,
            "byteOffset" : 382712
        },
        {
            "buffer" : 0,
            "byteLength" : 3942,
            "byteOffset" : 386528
        },
        {
            "buffer" : 0,
            "byteLength" : 105876,
            "byteOffset" : 390472
        },
        {
            "buffer" : 0,
            "byteLength" : 105876,
            "byteOffset" : 496348
        },
        {
            "buffer" : 0,
            "byteLength" : 70584,
            "byteOffset" : 602224
        },
        {
            "buffer" : 0,
            "byteLength" : 64632,
            "byteOffset" : 672808
        },
        {
            "buffer" : 0,
            "byteLength" : 4320,
            "byteOffset" : 737440
        },
        {
            "buffer" : 0,
            "byteLength" : 4320,
            "byteOffset" : 741760
        },
        {
            "buffer" : 0,
            "byteLength" : 2880,
            "byteOffset" : 746080
        },
        {
            "buffer" : 0,
            "byteLength" : 5724,
            "byteOffset" : 748960
        },
        {
            "buffer" : 0,
            "byteLength" : 5724,
            "byteOffset" : 754684
        },
        {
            "buffer" : 0,
            "byteLength" : 3816,
            "byteOffset" : 760408
        },
        {
            "buffer" : 0,
            "byteLength" : 4,
            "byteOffset" : 764224
        },
        {
            "buffer" : 0,
            "byteLength" : 12,
            "byteOffset" : 764228
        },
        {
            "buffer" : 0,
            "byteLength" : 16,
            "byteOffset" : 764240
        },
        {
            "buffer" : 0,
            "byteLength" : 12,
            "byteOffset" : 764256
        },
        {
            "buffer" : 0,
            "byteLength" : 12,
            "byteOffset" : 764268
        },
        {
            "buffer" : 0,
            "byteLength" : 16,
            "byteOffset" : 764280
        },
        {
            "buffer" : 0,
            "byteLength" : 12,
            "byteOffset" : 764296
        }
    ],
    "buffers" : [
        {
            "byteLength" : 764308,
            "uri" : "data:application/octet-stream;base64,"
        }
    ]
}
