{
    "asset" : {
        "generator" : "Khronos glTF Blender I/O v1.6.16",
        "version" : "2.0"
    },
    "scene" : 0,
    "scenes" : [
        {
            "name" : "Scene",
            "nodes" : [
                0,
                1
            ]
        }
    ],
    "nodes" : [
        {
            "mesh" : 0,
            "name" : "Asagao Export",
            "rotation" : [
                0.27390146255493164,
                0.6519033312797546,
                -0.6519033908843994,
                0.27390146255493164
            ],
            "scale" : [
                0.16430170834064484,
                0.16430170834064484,
                0.16430170834064484
            ],
            "translation" : [
                -2.0887503623962402,
                0.42391708493232727,
                6.900941371917725
            ]
        },
        {
            "mesh" : 1,
            "name" : "Asagao Export.002",
            "rotation" : [
                -0.3210698664188385,
                0.6300112009048462,
                -0.630011260509491,
                -0.3210698366165161
            ],
            "scale" : [
                0.16430170834064484,
                0.16430170834064484,
                0.16430170834064484
            ],
            "translation" : [
                2.374300956726074,
                0.8359110355377197,
                -0.2109757959842682
            ]
        }
    ],
    "animations" : [
        {
            "channels" : [
                {
                    "sampler" : 0,
                    "target" : {
                        "node" : 0,
                        "path" : "translation"
                    }
                },
                {
                    "sampler" : 1,
                    "target" : {
                        "node" : 0,
                        "path" : "rotation"
                    }
                },
                {
                    "sampler" : 2,
                    "target" : {
                        "node" : 0,
                        "path" : "scale"
                    }
                }
            ],
            "name" : "Asagao ExportAction",
            "samplers" : [
                {
                    "input" : 16,
                    "interpolation" : "STEP",
                    "output" : 17
                },
                {
                    "input" : 16,
                    "interpolation" : "STEP",
                    "output" : 18
                },
                {
                    "input" : 16,
                    "interpolation" : "STEP",
                    "output" : 19
                }
            ]
        },
        {
            "channels" : [
                {
                    "sampler" : 0,
                    "target" : {
                        "node" : 1,
                        "path" : "translation"
                    }
                },
                {
                    "sampler" : 1,
                    "target" : {
                        "node" : 1,
                        "path" : "rotation"
                    }
                },
                {
                    "sampler" : 2,
                    "target" : {
                        "node" : 1,
                        "path" : "scale"
                    }
                }
            ],
            "name" : "Asagao ExportAction.002",
            "samplers" : [
                {
                    "input" : 16,
                    "interpolation" : "STEP",
                    "output" : 20
                },
                {
                    "input" : 16,
                    "interpolation" : "STEP",
                    "output" : 21
                },
                {
                    "input" : 16,
                    "interpolation" : "STEP",
                    "output" : 22
                }
            ]
        }
    ],
    "materials" : [
        {
            "doubleSided" : true,
            "name" : "Leaf.002",
            "pbrMetallicRoughness" : {
                "baseColorFactor" : [
                    0.20749883353710175,
                    0.24909859895706177,
                    0.15940231084823608,
                    1
                ],
                "metallicFactor" : 0,
                "roughnessFactor" : 0.663636326789856
            }
        },
        {
            "doubleSided" : true,
            "name" : "Material.006",
            "pbrMetallicRoughness" : {
                "baseColorFactor" : [
                    0.15222345292568207,
                    0.11467188596725464,
                    0.2330154925584793,
                    1
                ],
                "metallicFactor" : 0,
                "roughnessFactor" : 0.6470588445663452
            }
        },
        {
            "doubleSided" : true,
            "name" : "Material.005",
            "pbrMetallicRoughness" : {
                "baseColorFactor" : [
                    1,
                    0.9179586172103882,
                    0.5130308270454407,
                    1
                ],
                "metallicFactor" : 0,
                "roughnessFactor" : 0.5
            }
        }
    ],
    "meshes" : [
        {
            "name" : "Plane.037",
            "primitives" : [
                {
                    "attributes" : {
                        "POSITION" : 0,
                        "NORMAL" : 1,
                        "TEXCOORD_0" : 2
                    },
                    "indices" : 3,
                    "material" : 0
                },
                {
                    "attributes" : {
                        "POSITION" : 4,
                        "NORMAL" : 5,
                        "TEXCOORD_0" : 6
                    },
                    "indices" : 7,
                    "material" : 1
                },
                {
                    "attributes" : {
                        "POSITION" : 8,
                        "NORMAL" : 9,
                        "TEXCOORD_0" : 10
                    },
                    "indices" : 11,
                    "material" : 2
                }
            ]
        },
        {
            "name" : "Plane.034",
            "primitives" : [
                {
                    "attributes" : {
                        "POSITION" : 12,
                        "NORMAL" : 13,
                        "TEXCOORD_0" : 14
                    },
                    "indices" : 15,
                    "material" : 0
                }
            ]
        }
    ],
    "accessors" : [
        {
            "bufferView" : 0,
            "componentType" : 5126,
            "count" : 8485,
            "max" : [
                0.4956393241882324,
                0.5644357800483704,
                -0.010950922966003418
            ],
            "min" : [
                -0.7312717437744141,
                -0.5824609398841858,
                -6.318631649017334
            ],
            "type" : "VEC3"
        },
        {
            "bufferView" : 1,
            "componentType" : 5126,
            "count" : 8485,
            "type" : "VEC3"
        },
        {
            "bufferView" : 2,
            "componentType" : 5126,
            "count" : 8485,
            "type" : "VEC2"
        },
        {
            "bufferView" : 3,
            "componentType" : 5123,
            "count" : 33360,
            "type" : "SCALAR"
        },
        {
            "bufferView" : 4,
            "componentType" : 5126,
            "count" : 360,
            "max" : [
                0.5538716316223145,
                0.7421596646308899,
                -1.3958584070205688
            ],
            "min" : [
                -0.17935001850128174,
                0.127926304936409,
                -5.434358596801758
            ],
            "type" : "VEC3"
        },
        {
            "bufferView" : 5,
            "componentType" : 5126,
            "count" : 360,
            "type" : "VEC3"
        },
        {
            "bufferView" : 6,
            "componentType" : 5126,
            "count" : 360,
            "type" : "VEC2"
        },
        {
            "bufferView" : 7,
            "componentType" : 5123,
            "count" : 1728,
            "type" : "SCALAR"
        },
        {
            "bufferView" : 8,
            "componentType" : 5126,
            "count" : 477,
            "max" : [
                0.19882822036743164,
                0.40361645817756653,
                -1.7493233680725098
            ],
            "min" : [
                -0.0835145115852356,
                0.1351618617773056,
                -5.299562454223633
            ],
            "type" : "VEC3"
        },
        {
            "bufferView" : 9,
            "componentType" : 5126,
            "count" : 477,
            "type" : "VEC3"
        },
        {
            "bufferView" : 10,
            "componentType" : 5126,
            "count" : 477,
            "type" : "VEC2"
        },
        {
            "bufferView" : 11,
            "componentType" : 5123,
            "count" : 1971,
            "type" : "SCALAR"
        },
        {
            "bufferView" : 12,
            "componentType" : 5126,
            "count" : 490,
            "max" : [
                0.09950828552246094,
                0.3900308907032013,
                -5.563713550567627
            ],
            "min" : [
                -0.43459367752075195,
                -0.05128537118434906,
                -6.318631649017334
            ],
            "type" : "VEC3"
        },
        {
            "bufferView" : 13,
            "componentType" : 5126,
            "count" : 490,
            "type" : "VEC3"
        },
        {
            "bufferView" : 14,
            "componentType" : 5126,
            "count" : 490,
            "type" : "VEC2"
        },
        {
            "bufferView" : 15,
            "componentType" : 5123,
            "count" : 1512,
            "type" : "SCALAR"
        },
        {
            "bufferView" : 16,
            "componentType" : 5126,
            "count" : 1,
            "max" : [
                0.041666666666666664
            ],
            "min" : [
                0.041666666666666664
            ],
            "type" : "SCALAR"
        },
        {
            "bufferView" : 17,
            "componentType" : 5126,
            "count" : 1,
            "type" : "VEC3"
        },
        {
            "bufferView" : 18,
            "componentType" : 5126,
            "count" : 1,
            "type" : "VEC4"
        },
        {
            "bufferView" : 19,
            "componentType" : 5126,
            "count" : 1,
            "type" : "VEC3"
        },
        {
            "bufferView" : 20,
            "componentType" : 5126,
            "count" : 1,
            "type" : "VEC3"
        },
        {
            "bufferView" : 21,
            "componentType" : 5126,
            "count" : 1,
            "type" : "VEC4"
        },
        {
            "bufferView" : 22,
            "componentType" : 5126,
            "count" : 1,
            "type" : "VEC3"
        }
    ],
    "bufferViews" : [
        {
            "buffer" : 0,
            "byteLength" : 101820,
            "byteOffset" : 0
        },
        {
            "buffer" : 0,
            "byteLength" : 101820,
            "byteOffset" : 101820
        },
        {
            "buffer" : 0,
            "byteLength" : 67880,
            "byteOffset" : 203640
        },
        {
            "buffer" : 0,
            "byteLength" : 66720,
            "byteOffset" : 271520
        },
        {
            "buffer" : 0,
            "byteLength" : 4320,
            "byteOffset" : 338240
        },
        {
            "buffer" : 0,
            "byteLength" : 4320,
            "byteOffset" : 342560
        },
        {
            "buffer" : 0,
            "byteLength" : 2880,
            "byteOffset" : 346880
        },
        {
            "buffer" : 0,
            "byteLength" : 3456,
            "byteOffset" : 349760
        },
        {
            "buffer" : 0,
            "byteLength" : 5724,
            "byteOffset" : 353216
        },
        {
            "buffer" : 0,
            "byteLength" : 5724,
            "byteOffset" : 358940
        },
        {
            "buffer" : 0,
            "byteLength" : 3816,
            "byteOffset" : 364664
        },
        {
            "buffer" : 0,
            "byteLength" : 3942,
            "byteOffset" : 368480
        },
        {
            "buffer" : 0,
            "byteLength" : 5880,
            "byteOffset" : 372424
        },
        {
            "buffer" : 0,
            "byteLength" : 5880,
            "byteOffset" : 378304
        },
        {
            "buffer" : 0,
            "byteLength" : 3920,
            "byteOffset" : 384184
        },
        {
            "buffer" : 0,
            "byteLength" : 3024,
            "byteOffset" : 388104
        },
        {
            "buffer" : 0,
            "byteLength" : 4,
            "byteOffset" : 391128
        },
        {
            "buffer" : 0,
            "byteLength" : 12,
            "byteOffset" : 391132
        },
        {
            "buffer" : 0,
            "byteLength" : 16,
            "byteOffset" : 391144
        },
        {
            "buffer" : 0,
            "byteLength" : 12,
            "byteOffset" : 391160
        },
        {
            "buffer" : 0,
            "byteLength" : 12,
            "byteOffset" : 391172
        },
        {
            "buffer" : 0,
            "byteLength" : 16,
            "byteOffset" : 391184
        },
        {
            "buffer" : 0,
            "byteLength" : 12,
            "byteOffset" : 391200
        }
    ],
    "buffers" : [
        {
            "byteLength" : 391212,
            "uri" : "data:application/octet-stream;base64,"
        }
    ]
}
