{
    "asset" : {
        "generator" : "Khronos glTF Blender I/O v1.6.16",
        "version" : "2.0"
    },
    "scene" : 0,
    "scenes" : [
        {
            "name" : "Scene",
            "nodes" : [
                0
            ]
        }
    ],
    "nodes" : [
        {
            "mesh" : 0,
            "name" : "backDoor",
            "rotation" : [
                0,
                0.7071068286895752,
                0,
                -0.7071068286895752
            ],
            "translation" : [
                -5.248384952545166,
                2.2059640884399414,
                4.593986988067627
            ]
        }
    ],
    "animations" : [
        {
            "channels" : [
                {
                    "sampler" : 0,
                    "target" : {
                        "node" : 0,
                        "path" : "rotation"
                    }
                }
            ],
            "name" : "door3.001Action.001",
            "samplers" : [
                {
                    "input" : 16,
                    "interpolation" : "LINEAR",
                    "output" : 17
                }
            ]
        }
    ],
    "materials" : [
        {
            "doubleSided" : true,
            "name" : "door2Material",
            "pbrMetallicRoughness" : {
                "baseColorFactor" : [
                    0.07323560863733292,
                    0.008110763505101204,
                    0.0022637583315372467,
                    1
                ],
                "metallicFactor" : 0,
                "roughnessFactor" : 0.5
            }
        },
        {
            "doubleSided" : true,
            "name" : "door2MetalMaterial",
            "pbrMetallicRoughness" : {
                "baseColorFactor" : [
                    0.1626419872045517,
                    0.1626419872045517,
                    0.1626419872045517,
                    1
                ],
                "roughnessFactor" : 0.6617647409439087
            }
        },
        {
            "doubleSided" : true,
            "name" : "upArrowDoorMaterial2",
            "pbrMetallicRoughness" : {
                "baseColorFactor" : [
                    0.18446938693523407,
                    0.17923152446746826,
                    0.17923152446746826,
                    1
                ],
                "roughnessFactor" : 0.507352888584137
            }
        },
        {
            "doubleSided" : true,
            "name" : "upArrowDoorMaterial3",
            "pbrMetallicRoughness" : {
                "baseColorFactor" : [
                    0.01108766719698906,
                    0.01108766719698906,
                    0.01108766719698906,
                    1
                ],
                "metallicFactor" : 0,
                "roughnessFactor" : 0.5
            }
        }
    ],
    "meshes" : [
        {
            "name" : "Cube.001",
            "primitives" : [
                {
                    "attributes" : {
                        "POSITION" : 0,
                        "NORMAL" : 1,
                        "TEXCOORD_0" : 2
                    },
                    "indices" : 3,
                    "material" : 0
                },
                {
                    "attributes" : {
                        "POSITION" : 4,
                        "NORMAL" : 5,
                        "TEXCOORD_0" : 6
                    },
                    "indices" : 7,
                    "material" : 1
                },
                {
                    "attributes" : {
                        "POSITION" : 8,
                        "NORMAL" : 9,
                        "TEXCOORD_0" : 10
                    },
                    "indices" : 11,
                    "material" : 2
                },
                {
                    "attributes" : {
                        "POSITION" : 12,
                        "NORMAL" : 13,
                        "TEXCOORD_0" : 14
                    },
                    "indices" : 15,
                    "material" : 3
                }
            ]
        }
    ],
    "accessors" : [
        {
            "bufferView" : 0,
            "componentType" : 5126,
            "count" : 640,
            "max" : [
                -0.0076836347579956055,
                0.336370587348938,
                0.014485206454992294
            ],
            "min" : [
                -1.1982437372207642,
                -2.1869280338287354,
                -0.051564063876867294
            ],
            "type" : "VEC3"
        },
        {
            "bufferView" : 1,
            "componentType" : 5126,
            "count" : 640,
            "type" : "VEC3"
        },
        {
            "bufferView" : 2,
            "componentType" : 5126,
            "count" : 640,
            "type" : "VEC2"
        },
        {
            "bufferView" : 3,
            "componentType" : 5123,
            "count" : 996,
            "type" : "SCALAR"
        },
        {
            "bufferView" : 4,
            "componentType" : 5126,
            "count" : 868,
            "max" : [
                0.014237642288208008,
                0.034183502197265625,
                0.10373185575008392
            ],
            "min" : [
                -1.201717495918274,
                -1.6656980514526367,
                -0.1441667377948761
            ],
            "type" : "VEC3"
        },
        {
            "bufferView" : 5,
            "componentType" : 5126,
            "count" : 868,
            "type" : "VEC3"
        },
        {
            "bufferView" : 6,
            "componentType" : 5126,
            "count" : 868,
            "type" : "VEC2"
        },
        {
            "bufferView" : 7,
            "componentType" : 5123,
            "count" : 2418,
            "type" : "SCALAR"
        },
        {
            "bufferView" : 8,
            "componentType" : 5126,
            "count" : 328,
            "max" : [
                -0.9089868664741516,
                -0.9190824031829834,
                -0.0650951936841011
            ],
            "min" : [
                -0.9984451532363892,
                -0.9577640891075134,
                -0.07380856573581696
            ],
            "type" : "VEC3"
        },
        {
            "bufferView" : 9,
            "componentType" : 5126,
            "count" : 328,
            "type" : "VEC3"
        },
        {
            "bufferView" : 10,
            "componentType" : 5126,
            "count" : 328,
            "type" : "VEC2"
        },
        {
            "bufferView" : 11,
            "componentType" : 5123,
            "count" : 1020,
            "type" : "SCALAR"
        },
        {
            "bufferView" : 12,
            "componentType" : 5126,
            "count" : 26,
            "max" : [
                -0.9263927340507507,
                -0.9240545034408569,
                -0.07215595990419388
            ],
            "min" : [
                -0.981400728225708,
                -0.9409114718437195,
                -0.07215595990419388
            ],
            "type" : "VEC3"
        },
        {
            "bufferView" : 13,
            "componentType" : 5126,
            "count" : 26,
            "type" : "VEC3"
        },
        {
            "bufferView" : 14,
            "componentType" : 5126,
            "count" : 26,
            "type" : "VEC2"
        },
        {
            "bufferView" : 15,
            "componentType" : 5123,
            "count" : 84,
            "type" : "SCALAR"
        },
        {
            "bufferView" : 16,
            "componentType" : 5126,
            "count" : 50,
            "max" : [
                2.0833333333333335
            ],
            "min" : [
                0.041666666666666664
            ],
            "type" : "SCALAR"
        },
        {
            "bufferView" : 17,
            "componentType" : 5126,
            "count" : 50,
            "type" : "VEC4"
        }
    ],
    "bufferViews" : [
        {
            "buffer" : 0,
            "byteLength" : 7680,
            "byteOffset" : 0
        },
        {
            "buffer" : 0,
            "byteLength" : 7680,
            "byteOffset" : 7680
        },
        {
            "buffer" : 0,
            "byteLength" : 5120,
            "byteOffset" : 15360
        },
        {
            "buffer" : 0,
            "byteLength" : 1992,
            "byteOffset" : 20480
        },
        {
            "buffer" : 0,
            "byteLength" : 10416,
            "byteOffset" : 22472
        },
        {
            "buffer" : 0,
            "byteLength" : 10416,
            "byteOffset" : 32888
        },
        {
            "buffer" : 0,
            "byteLength" : 6944,
            "byteOffset" : 43304
        },
        {
            "buffer" : 0,
            "byteLength" : 4836,
            "byteOffset" : 50248
        },
        {
            "buffer" : 0,
            "byteLength" : 3936,
            "byteOffset" : 55084
        },
        {
            "buffer" : 0,
            "byteLength" : 3936,
            "byteOffset" : 59020
        },
        {
            "buffer" : 0,
            "byteLength" : 2624,
            "byteOffset" : 62956
        },
        {
            "buffer" : 0,
            "byteLength" : 2040,
            "byteOffset" : 65580
        },
        {
            "buffer" : 0,
            "byteLength" : 312,
            "byteOffset" : 67620
        },
        {
            "buffer" : 0,
            "byteLength" : 312,
            "byteOffset" : 67932
        },
        {
            "buffer" : 0,
            "byteLength" : 208,
            "byteOffset" : 68244
        },
        {
            "buffer" : 0,
            "byteLength" : 168,
            "byteOffset" : 68452
        },
        {
            "buffer" : 0,
            "byteLength" : 200,
            "byteOffset" : 68620
        },
        {
            "buffer" : 0,
            "byteLength" : 800,
            "byteOffset" : 68820
        }
    ],
    "buffers" : [
        {
            "byteLength" : 69620,
            "uri" : "data:application/octet-stream;base64,"
        }
    ]
}
