{
    "asset" : {
        "generator" : "Khronos glTF Blender I/O v1.6.16",
        "version" : "2.0"
    },
    "scene" : 0,
    "scenes" : [
        {
            "name" : "Scene",
            "nodes" : [
                0
            ]
        }
    ],
    "nodes" : [
        {
            "mesh" : 0,
            "name" : "broom",
            "rotation" : [
                0,
                0.7071068286895752,
                0,
                0.7071068286895752
            ],
            "scale" : [
                0.02365821599960327,
                0.8760870695114136,
                0.02365821599960327
            ],
            "translation" : [
                -4.7724761962890625,
                1.2573939561843872,
                3.7313733100891113
            ]
        }
    ],
    "animations" : [
        {
            "channels" : [
                {
                    "sampler" : 0,
                    "target" : {
                        "node" : 0,
                        "path" : "rotation"
                    }
                }
            ],
            "name" : "broomAction.001",
            "samplers" : [
                {
                    "input" : 8,
                    "interpolation" : "LINEAR",
                    "output" : 9
                }
            ]
        }
    ],
    "materials" : [
        {
            "doubleSided" : true,
            "name" : "broomMaterial",
            "pbrMetallicRoughness" : {
                "baseColorFactor" : [
                    0.21403494477272034,
                    0.007145820651203394,
                    0.00798859354108572,
                    1
                ],
                "metallicFactor" : 0,
                "roughnessFactor" : 0.5
            }
        },
        {
            "doubleSided" : true,
            "name" : "broom2Material",
            "pbrMetallicRoughness" : {
                "baseColorFactor" : [
                    0.0025794461835175753,
                    0.0025794461835175753,
                    0.0025794461835175753,
                    1
                ],
                "metallicFactor" : 0,
                "roughnessFactor" : 0.7039215564727783
            }
        }
    ],
    "meshes" : [
        {
            "name" : "Cylinder.022",
            "primitives" : [
                {
                    "attributes" : {
                        "POSITION" : 0,
                        "NORMAL" : 1,
                        "TEXCOORD_0" : 2
                    },
                    "indices" : 3,
                    "material" : 0
                },
                {
                    "attributes" : {
                        "POSITION" : 4,
                        "NORMAL" : 5,
                        "TEXCOORD_0" : 6
                    },
                    "indices" : 7,
                    "material" : 1
                }
            ]
        }
    ],
    "accessors" : [
        {
            "bufferView" : 0,
            "componentType" : 5126,
            "count" : 42,
            "max" : [
                1.3007985353469849,
                0.36717602610588074,
                6.798725128173828
            ],
            "min" : [
                -1.4554448127746582,
                -1.268092393875122,
                -11.948915481567383
            ],
            "type" : "VEC3"
        },
        {
            "bufferView" : 1,
            "componentType" : 5126,
            "count" : 42,
            "type" : "VEC3"
        },
        {
            "bufferView" : 2,
            "componentType" : 5126,
            "count" : 42,
            "type" : "VEC2"
        },
        {
            "bufferView" : 3,
            "componentType" : 5123,
            "count" : 84,
            "type" : "SCALAR"
        },
        {
            "bufferView" : 4,
            "componentType" : 5126,
            "count" : 163,
            "max" : [
                1.2372990846633911,
                0.5568042397499084,
                6.632481098175049
            ],
            "min" : [
                -1.6158640384674072,
                -1.383289098739624,
                -12.16478157043457
            ],
            "type" : "VEC3"
        },
        {
            "bufferView" : 5,
            "componentType" : 5126,
            "count" : 163,
            "type" : "VEC3"
        },
        {
            "bufferView" : 6,
            "componentType" : 5126,
            "count" : 163,
            "type" : "VEC2"
        },
        {
            "bufferView" : 7,
            "componentType" : 5123,
            "count" : 306,
            "type" : "SCALAR"
        },
        {
            "bufferView" : 8,
            "componentType" : 5126,
            "count" : 50,
            "max" : [
                2.0833333333333335
            ],
            "min" : [
                0.041666666666666664
            ],
            "type" : "SCALAR"
        },
        {
            "bufferView" : 9,
            "componentType" : 5126,
            "count" : 50,
            "type" : "VEC4"
        }
    ],
    "bufferViews" : [
        {
            "buffer" : 0,
            "byteLength" : 504,
            "byteOffset" : 0
        },
        {
            "buffer" : 0,
            "byteLength" : 504,
            "byteOffset" : 504
        },
        {
            "buffer" : 0,
            "byteLength" : 336,
            "byteOffset" : 1008
        },
        {
            "buffer" : 0,
            "byteLength" : 168,
            "byteOffset" : 1344
        },
        {
            "buffer" : 0,
            "byteLength" : 1956,
            "byteOffset" : 1512
        },
        {
            "buffer" : 0,
            "byteLength" : 1956,
            "byteOffset" : 3468
        },
        {
            "buffer" : 0,
            "byteLength" : 1304,
            "byteOffset" : 5424
        },
        {
            "buffer" : 0,
            "byteLength" : 612,
            "byteOffset" : 6728
        },
        {
            "buffer" : 0,
            "byteLength" : 200,
            "byteOffset" : 7340
        },
        {
            "buffer" : 0,
            "byteLength" : 800,
            "byteOffset" : 7540
        }
    ],
    "buffers" : [
        {
            "byteLength" : 8340,
            "uri" : "data:application/octet-stream;base64,"
        }
    ]
}
