{
    "asset" : {
        "generator" : "Khronos glTF Blender I/O v1.6.16",
        "version" : "2.0"
    },
    "scene" : 0,
    "scenes" : [
        {
            "name" : "Scene",
            "nodes" : [
                0
            ]
        }
    ],
    "nodes" : [
        {
            "mesh" : 0,
            "name" : "goStoneBlack",
            "scale" : [
                1.923807144165039,
                1.923807144165039,
                1.923807144165039
            ],
            "translation" : [
                -7.025799751281738,
                1.1473981142044067,
                -1.0909051895141602
            ]
        }
    ],
    "animations" : [
        {
            "channels" : [
                {
                    "sampler" : 0,
                    "target" : {
                        "node" : 0,
                        "path" : "translation"
                    }
                },
                {
                    "sampler" : 1,
                    "target" : {
                        "node" : 0,
                        "path" : "rotation"
                    }
                },
                {
                    "sampler" : 2,
                    "target" : {
                        "node" : 0,
                        "path" : "scale"
                    }
                }
            ],
            "name" : "goStoneBlackAction",
            "samplers" : [
                {
                    "input" : 7,
                    "interpolation" : "STEP",
                    "output" : 8
                },
                {
                    "input" : 7,
                    "interpolation" : "STEP",
                    "output" : 9
                },
                {
                    "input" : 7,
                    "interpolation" : "STEP",
                    "output" : 10
                }
            ]
        }
    ],
    "materials" : [
        {
            "doubleSided" : true,
            "name" : "stoneBlack",
            "pbrMetallicRoughness" : {
                "baseColorFactor" : [
                    0,
                    0,
                    0,
                    1
                ],
                "metallicFactor" : 0,
                "roughnessFactor" : 0.5
            }
        },
        {
            "doubleSided" : true,
            "name" : "stoneWhite",
            "pbrMetallicRoughness" : {
                "baseColorFactor" : [
                    0.800000011920929,
                    0.800000011920929,
                    0.800000011920929,
                    1
                ],
                "metallicFactor" : 0,
                "roughnessFactor" : 0.5
            }
        }
    ],
    "meshes" : [
        {
            "name" : "Cylinder.009",
            "primitives" : [
                {
                    "attributes" : {
                        "POSITION" : 0,
                        "NORMAL" : 1,
                        "TEXCOORD_0" : 2
                    },
                    "indices" : 3,
                    "material" : 0
                },
                {
                    "attributes" : {
                        "POSITION" : 4,
                        "NORMAL" : 5,
                        "TEXCOORD_0" : 6
                    },
                    "indices" : 3,
                    "material" : 1
                }
            ]
        }
    ],
    "accessors" : [
        {
            "bufferView" : 0,
            "componentType" : 5126,
            "count" : 810,
            "max" : [
                0.005462514702230692,
                0.0019005119102075696,
                0.0385868102312088
            ],
            "min" : [
                -0.01764613203704357,
                -0.001899855793453753,
                -0.016884703189134598
            ],
            "type" : "VEC3"
        },
        {
            "bufferView" : 1,
            "componentType" : 5126,
            "count" : 810,
            "type" : "VEC3"
        },
        {
            "bufferView" : 2,
            "componentType" : 5126,
            "count" : 810,
            "type" : "VEC2"
        },
        {
            "bufferView" : 3,
            "componentType" : 5123,
            "count" : 3780,
            "type" : "SCALAR"
        },
        {
            "bufferView" : 4,
            "componentType" : 5126,
            "count" : 810,
            "max" : [
                -0.0066198185086250305,
                0.0019005119102075696,
                0.0382639616727829
            ],
            "min" : [
                -0.028967034071683884,
                -0.001899855793453753,
                -0.016750682145357132
            ],
            "type" : "VEC3"
        },
        {
            "bufferView" : 5,
            "componentType" : 5126,
            "count" : 810,
            "type" : "VEC3"
        },
        {
            "bufferView" : 6,
            "componentType" : 5126,
            "count" : 810,
            "type" : "VEC2"
        },
        {
            "bufferView" : 7,
            "componentType" : 5126,
            "count" : 1,
            "max" : [
                1.375
            ],
            "min" : [
                1.375
            ],
            "type" : "SCALAR"
        },
        {
            "bufferView" : 8,
            "componentType" : 5126,
            "count" : 1,
            "type" : "VEC3"
        },
        {
            "bufferView" : 9,
            "componentType" : 5126,
            "count" : 1,
            "type" : "VEC4"
        },
        {
            "bufferView" : 10,
            "componentType" : 5126,
            "count" : 1,
            "type" : "VEC3"
        }
    ],
    "bufferViews" : [
        {
            "buffer" : 0,
            "byteLength" : 9720,
            "byteOffset" : 0
        },
        {
            "buffer" : 0,
            "byteLength" : 9720,
            "byteOffset" : 9720
        },
        {
            "buffer" : 0,
            "byteLength" : 6480,
            "byteOffset" : 19440
        },
        {
            "buffer" : 0,
            "byteLength" : 7560,
            "byteOffset" : 25920
        },
        {
            "buffer" : 0,
            "byteLength" : 9720,
            "byteOffset" : 33480
        },
        {
            "buffer" : 0,
            "byteLength" : 9720,
            "byteOffset" : 43200
        },
        {
            "buffer" : 0,
            "byteLength" : 6480,
            "byteOffset" : 52920
        },
        {
            "buffer" : 0,
            "byteLength" : 4,
            "byteOffset" : 59400
        },
        {
            "buffer" : 0,
            "byteLength" : 12,
            "byteOffset" : 59404
        },
        {
            "buffer" : 0,
            "byteLength" : 16,
            "byteOffset" : 59416
        },
        {
            "buffer" : 0,
            "byteLength" : 12,
            "byteOffset" : 59432
        }
    ],
    "buffers" : [
        {
            "byteLength" : 59444,
            "uri" : "data:application/octet-stream;base64,"
        }
    ]
}
