{
    "asset" : {
        "generator" : "Khronos glTF Blender I/O v1.6.16",
        "version" : "2.0"
    },
    "scene" : 0,
    "scenes" : [
        {
            "name" : "Scene",
            "nodes" : [
                0
            ]
        }
    ],
    "nodes" : [
        {
            "mesh" : 0,
            "name" : "livingRoomDoor",
            "rotation" : [
                0,
                0.3826836943626404,
                0,
                0.9238794445991516
            ],
            "scale" : [
                0.6067261099815369,
                0.5799347758293152,
                0.5799347758293152
            ],
            "translation" : [
                -4.446320533752441,
                2.151824951171875,
                2.452214241027832
            ]
        }
    ],
    "animations" : [
        {
            "channels" : [
                {
                    "sampler" : 0,
                    "target" : {
                        "node" : 0,
                        "path" : "rotation"
                    }
                }
            ],
            "name" : "door1Action",
            "samplers" : [
                {
                    "input" : 12,
                    "interpolation" : "LINEAR",
                    "output" : 13
                }
            ]
        }
    ],
    "materials" : [
        {
            "doubleSided" : true,
            "name" : "doorMaterial",
            "pbrMetallicRoughness" : {
                "baseColorFactor" : [
                    0.6521753668785095,
                    0.677592396736145,
                    0.6981921792030334,
                    1
                ],
                "metallicFactor" : 0,
                "roughnessFactor" : 0.7132352590560913
            }
        },
        {
            "doubleSided" : true,
            "name" : "doorMetalMateiral",
            "pbrMetallicRoughness" : {
                "baseColorFactor" : [
                    0.23301556706428528,
                    0.19388921558856964,
                    0.18813693523406982,
                    1
                ],
                "roughnessFactor" : 0.8235293626785278
            }
        },
        {
            "doubleSided" : true,
            "name" : "doorMetalMateiral.001",
            "pbrMetallicRoughness" : {
                "baseColorFactor" : [
                    0.8000000715255737,
                    0.3992782533168793,
                    0.3992782533168793,
                    1
                ],
                "roughnessFactor" : 0.24264700710773468
            }
        }
    ],
    "meshes" : [
        {
            "name" : "Cube.015",
            "primitives" : [
                {
                    "attributes" : {
                        "POSITION" : 0,
                        "NORMAL" : 1,
                        "TEXCOORD_0" : 2
                    },
                    "indices" : 3,
                    "material" : 0
                },
                {
                    "attributes" : {
                        "POSITION" : 4,
                        "NORMAL" : 5,
                        "TEXCOORD_0" : 6
                    },
                    "indices" : 7,
                    "material" : 1
                },
                {
                    "attributes" : {
                        "POSITION" : 8,
                        "NORMAL" : 9,
                        "TEXCOORD_0" : 10
                    },
                    "indices" : 11,
                    "material" : 2
                }
            ]
        }
    ],
    "accessors" : [
        {
            "bufferView" : 0,
            "componentType" : 5126,
            "count" : 712,
            "max" : [
                2.093172073364258,
                0.6632050275802612,
                0.08604517579078674
            ],
            "min" : [
                0.019658923149108887,
                -3.6715645790100098,
                0.0026838518679142
            ],
            "type" : "VEC3"
        },
        {
            "bufferView" : 1,
            "componentType" : 5126,
            "count" : 712,
            "type" : "VEC3"
        },
        {
            "bufferView" : 2,
            "componentType" : 5126,
            "count" : 712,
            "type" : "VEC2"
        },
        {
            "bufferView" : 3,
            "componentType" : 5123,
            "count" : 2100,
            "type" : "SCALAR"
        },
        {
            "bufferView" : 4,
            "componentType" : 5126,
            "count" : 1122,
            "max" : [
                2.039720296859741,
                -1.5894489288330078,
                0.25989431142807007
            ],
            "min" : [
                1.725923776626587,
                -1.7572746276855469,
                -0.17116525769233704
            ],
            "type" : "VEC3"
        },
        {
            "bufferView" : 5,
            "componentType" : 5126,
            "count" : 1122,
            "type" : "VEC3"
        },
        {
            "bufferView" : 6,
            "componentType" : 5126,
            "count" : 1122,
            "type" : "VEC2"
        },
        {
            "bufferView" : 7,
            "componentType" : 5123,
            "count" : 3456,
            "type" : "SCALAR"
        },
        {
            "bufferView" : 8,
            "componentType" : 5126,
            "count" : 382,
            "max" : [
                0.019658740609884262,
                0.06887555867433548,
                0.07692345976829529
            ],
            "min" : [
                -0.01788908615708351,
                -2.8622846603393555,
                -0.02344920113682747
            ],
            "type" : "VEC3"
        },
        {
            "bufferView" : 9,
            "componentType" : 5126,
            "count" : 382,
            "type" : "VEC3"
        },
        {
            "bufferView" : 10,
            "componentType" : 5126,
            "count" : 382,
            "type" : "VEC2"
        },
        {
            "bufferView" : 11,
            "componentType" : 5123,
            "count" : 882,
            "type" : "SCALAR"
        },
        {
            "bufferView" : 12,
            "componentType" : 5126,
            "count" : 50,
            "max" : [
                2.0833333333333335
            ],
            "min" : [
                0.041666666666666664
            ],
            "type" : "SCALAR"
        },
        {
            "bufferView" : 13,
            "componentType" : 5126,
            "count" : 50,
            "type" : "VEC4"
        }
    ],
    "bufferViews" : [
        {
            "buffer" : 0,
            "byteLength" : 8544,
            "byteOffset" : 0
        },
        {
            "buffer" : 0,
            "byteLength" : 8544,
            "byteOffset" : 8544
        },
        {
            "buffer" : 0,
            "byteLength" : 5696,
            "byteOffset" : 17088
        },
        {
            "buffer" : 0,
            "byteLength" : 4200,
            "byteOffset" : 22784
        },
        {
            "buffer" : 0,
            "byteLength" : 13464,
            "byteOffset" : 26984
        },
        {
            "buffer" : 0,
            "byteLength" : 13464,
            "byteOffset" : 40448
        },
        {
            "buffer" : 0,
            "byteLength" : 8976,
            "byteOffset" : 53912
        },
        {
            "buffer" : 0,
            "byteLength" : 6912,
            "byteOffset" : 62888
        },
        {
            "buffer" : 0,
            "byteLength" : 4584,
            "byteOffset" : 69800
        },
        {
            "buffer" : 0,
            "byteLength" : 4584,
            "byteOffset" : 74384
        },
        {
            "buffer" : 0,
            "byteLength" : 3056,
            "byteOffset" : 78968
        },
        {
            "buffer" : 0,
            "byteLength" : 1764,
            "byteOffset" : 82024
        },
        {
            "buffer" : 0,
            "byteLength" : 200,
            "byteOffset" : 83788
        },
        {
            "buffer" : 0,
            "byteLength" : 800,
            "byteOffset" : 83988
        }
    ],
    "buffers" : [
        {
            "byteLength" : 84788,
            "uri" : "data:application/octet-stream;base64,"
        }
    ]
}
