{
    "asset" : {
        "generator" : "Khronos glTF Blender I/O v1.6.16",
        "version" : "2.0"
    },
    "extensionsUsed" : [
        "KHR_materials_transmission"
    ],
    "scene" : 0,
    "scenes" : [
        {
            "name" : "Scene",
            "nodes" : [
                0
            ]
        }
    ],
    "nodes" : [
        {
            "mesh" : 0,
            "name" : "upArrowDoor",
            "rotation" : [
                0.7071066498756409,
                0,
                -0.70710688829422,
                5.366708251131058e-07
            ],
            "scale" : [
                -1.1068087816238403,
                -1.1068087816238403,
                -1.1068087816238403
            ],
            "translation" : [
                2.992509126663208,
                2.457676887512207,
                3.6342618465423584
            ]
        }
    ],
    "animations" : [
        {
            "channels" : [
                {
                    "sampler" : 0,
                    "target" : {
                        "node" : 0,
                        "path" : "rotation"
                    }
                }
            ],
            "name" : "upArrowDoorAction",
            "samplers" : [
                {
                    "input" : 16,
                    "interpolation" : "LINEAR",
                    "output" : 17
                }
            ]
        }
    ],
    "materials" : [
        {
            "doubleSided" : true,
            "name" : "doorMaterial",
            "pbrMetallicRoughness" : {
                "baseColorFactor" : [
                    0.6521753668785095,
                    0.677592396736145,
                    0.6981921792030334,
                    1
                ],
                "metallicFactor" : 0,
                "roughnessFactor" : 0.7132352590560913
            }
        },
        {
            "doubleSided" : true,
            "name" : "upArrowDoorMaterial2",
            "pbrMetallicRoughness" : {
                "baseColorFactor" : [
                    0.18446938693523407,
                    0.17923152446746826,
                    0.17923152446746826,
                    1
                ],
                "roughnessFactor" : 0.507352888584137
            }
        },
        {
            "doubleSided" : true,
            "name" : "upArrowDoorMaterial3",
            "pbrMetallicRoughness" : {
                "baseColorFactor" : [
                    0.01108766719698906,
                    0.01108766719698906,
                    0.01108766719698906,
                    1
                ],
                "metallicFactor" : 0,
                "roughnessFactor" : 0.5
            }
        },
        {
            "alphaMode" : "BLEND",
            "doubleSided" : true,
            "extensions" : {
                "KHR_materials_transmission" : {
                    "transmissionFactor" : 1
                }
            },
            "name" : "upArrowDoorMaterial4",
            "pbrMetallicRoughness" : {
                "baseColorFactor" : [
                    0.800000011920929,
                    0.800000011920929,
                    0.800000011920929,
                    1
                ],
                "metallicFactor" : 0,
                "roughnessFactor" : 0
            }
        }
    ],
    "meshes" : [
        {
            "name" : "Plane.004",
            "primitives" : [
                {
                    "attributes" : {
                        "POSITION" : 0,
                        "NORMAL" : 1,
                        "TEXCOORD_0" : 2
                    },
                    "indices" : 3,
                    "material" : 0
                },
                {
                    "attributes" : {
                        "POSITION" : 4,
                        "NORMAL" : 5,
                        "TEXCOORD_0" : 6
                    },
                    "indices" : 7,
                    "material" : 1
                },
                {
                    "attributes" : {
                        "POSITION" : 8,
                        "NORMAL" : 9,
                        "TEXCOORD_0" : 10
                    },
                    "indices" : 11,
                    "material" : 2
                },
                {
                    "attributes" : {
                        "POSITION" : 12,
                        "NORMAL" : 13,
                        "TEXCOORD_0" : 14
                    },
                    "indices" : 15,
                    "material" : 3
                }
            ]
        }
    ],
    "accessors" : [
        {
            "bufferView" : 0,
            "componentType" : 5126,
            "count" : 1940,
            "max" : [
                -0.0066580697894096375,
                0.5376409292221069,
                0.07715687155723572
            ],
            "min" : [
                -1.0939691066741943,
                -2.2028346061706543,
                0.00605165958404541
            ],
            "type" : "VEC3"
        },
        {
            "bufferView" : 1,
            "componentType" : 5126,
            "count" : 1940,
            "type" : "VEC3"
        },
        {
            "bufferView" : 2,
            "componentType" : 5126,
            "count" : 1940,
            "type" : "VEC2"
        },
        {
            "bufferView" : 3,
            "componentType" : 5123,
            "count" : 5706,
            "type" : "SCALAR"
        },
        {
            "bufferView" : 4,
            "componentType" : 5126,
            "count" : 1346,
            "max" : [
                0.01301538199186325,
                -5.939602851867676e-05,
                0.13797937333583832
            ],
            "min" : [
                -1.0925252437591553,
                -1.8955674171447754,
                -0.05832512676715851
            ],
            "type" : "VEC3"
        },
        {
            "bufferView" : 5,
            "componentType" : 5126,
            "count" : 1346,
            "type" : "VEC3"
        },
        {
            "bufferView" : 6,
            "componentType" : 5126,
            "count" : 1346,
            "type" : "VEC2"
        },
        {
            "bufferView" : 7,
            "componentType" : 5123,
            "count" : 3762,
            "type" : "SCALAR"
        },
        {
            "bufferView" : 8,
            "componentType" : 5126,
            "count" : 573,
            "max" : [
                -0.15588703751564026,
                -0.13791607320308685,
                0.13272210955619812
            ],
            "min" : [
                -1.083848237991333,
                -1.1148444414138794,
                0.02766602486371994
            ],
            "type" : "VEC3"
        },
        {
            "bufferView" : 9,
            "componentType" : 5126,
            "count" : 573,
            "type" : "VEC3"
        },
        {
            "bufferView" : 10,
            "componentType" : 5126,
            "count" : 573,
            "type" : "VEC2"
        },
        {
            "bufferView" : 11,
            "componentType" : 5123,
            "count" : 1026,
            "type" : "SCALAR"
        },
        {
            "bufferView" : 12,
            "componentType" : 5126,
            "count" : 8,
            "max" : [
                -0.22147217392921448,
                -0.1620262861251831,
                0.039827100932598114
            ],
            "min" : [
                -0.8791552186012268,
                -0.9476898312568665,
                0.03982698172330856
            ],
            "type" : "VEC3"
        },
        {
            "bufferView" : 13,
            "componentType" : 5126,
            "count" : 8,
            "type" : "VEC3"
        },
        {
            "bufferView" : 14,
            "componentType" : 5126,
            "count" : 8,
            "type" : "VEC2"
        },
        {
            "bufferView" : 15,
            "componentType" : 5123,
            "count" : 18,
            "type" : "SCALAR"
        },
        {
            "bufferView" : 16,
            "componentType" : 5126,
            "count" : 50,
            "max" : [
                2.0833333333333335
            ],
            "min" : [
                0.041666666666666664
            ],
            "type" : "SCALAR"
        },
        {
            "bufferView" : 17,
            "componentType" : 5126,
            "count" : 50,
            "type" : "VEC4"
        }
    ],
    "bufferViews" : [
        {
            "buffer" : 0,
            "byteLength" : 23280,
            "byteOffset" : 0
        },
        {
            "buffer" : 0,
            "byteLength" : 23280,
            "byteOffset" : 23280
        },
        {
            "buffer" : 0,
            "byteLength" : 15520,
            "byteOffset" : 46560
        },
        {
            "buffer" : 0,
            "byteLength" : 11412,
            "byteOffset" : 62080
        },
        {
            "buffer" : 0,
            "byteLength" : 16152,
            "byteOffset" : 73492
        },
        {
            "buffer" : 0,
            "byteLength" : 16152,
            "byteOffset" : 89644
        },
        {
            "buffer" : 0,
            "byteLength" : 10768,
            "byteOffset" : 105796
        },
        {
            "buffer" : 0,
            "byteLength" : 7524,
            "byteOffset" : 116564
        },
        {
            "buffer" : 0,
            "byteLength" : 6876,
            "byteOffset" : 124088
        },
        {
            "buffer" : 0,
            "byteLength" : 6876,
            "byteOffset" : 130964
        },
        {
            "buffer" : 0,
            "byteLength" : 4584,
            "byteOffset" : 137840
        },
        {
            "buffer" : 0,
            "byteLength" : 2052,
            "byteOffset" : 142424
        },
        {
            "buffer" : 0,
            "byteLength" : 96,
            "byteOffset" : 144476
        },
        {
            "buffer" : 0,
            "byteLength" : 96,
            "byteOffset" : 144572
        },
        {
            "buffer" : 0,
            "byteLength" : 64,
            "byteOffset" : 144668
        },
        {
            "buffer" : 0,
            "byteLength" : 36,
            "byteOffset" : 144732
        },
        {
            "buffer" : 0,
            "byteLength" : 200,
            "byteOffset" : 144768
        },
        {
            "buffer" : 0,
            "byteLength" : 800,
            "byteOffset" : 144968
        }
    ],
    "buffers" : [
        {
            "byteLength" : 145768,
            "uri" : "data:application/octet-stream;base64,"
        }
    ]
}
