{
    "asset" : {
        "generator" : "Khronos glTF Blender I/O v1.6.16",
        "version" : "2.0"
    },
    "scene" : 0,
    "scenes" : [
        {
            "name" : "Scene",
            "nodes" : [
                0,
                1,
                2
            ]
        }
    ],
    "nodes" : [
        {
            "mesh" : 0,
            "name" : "Asagao Export",
            "rotation" : [
                0.27390146255493164,
                0.6519033312797546,
                -0.6519033908843994,
                0.27390146255493164
            ],
            "scale" : [
                0.16430170834064484,
                0.16430170834064484,
                0.16430170834064484
            ],
            "translation" : [
                -2.0887503623962402,
                0.42391708493232727,
                6.900941371917725
            ]
        },
        {
            "mesh" : 1,
            "name" : "Bloodgrass Export",
            "rotation" : [
                0.36761483550071716,
                0.6647348999977112,
                -0.6112473011016846,
                0.22217948734760284
            ],
            "scale" : [
                0.08618217706680298,
                0.08618219196796417,
                0.08618219196796417
            ],
            "translation" : [
                -1.026861310005188,
                0.8037170767784119,
                1.312354564666748
            ]
        },
        {
            "mesh" : 2,
            "name" : "Asagao Export.002",
            "rotation" : [
                -0.3210698664188385,
                0.6300112009048462,
                -0.630011260509491,
                -0.3210698366165161
            ],
            "scale" : [
                0.16430170834064484,
                0.16430170834064484,
                0.16430170834064484
            ],
            "translation" : [
                2.374300956726074,
                0.8359110355377197,
                -0.2109757959842682
            ]
        }
    ],
    "animations" : [
        {
            "channels" : [
                {
                    "sampler" : 0,
                    "target" : {
                        "node" : 0,
                        "path" : "translation"
                    }
                },
                {
                    "sampler" : 1,
                    "target" : {
                        "node" : 0,
                        "path" : "rotation"
                    }
                },
                {
                    "sampler" : 2,
                    "target" : {
                        "node" : 0,
                        "path" : "scale"
                    }
                }
            ],
            "name" : "Asagao ExportAction",
            "samplers" : [
                {
                    "input" : 20,
                    "interpolation" : "STEP",
                    "output" : 21
                },
                {
                    "input" : 20,
                    "interpolation" : "STEP",
                    "output" : 22
                },
                {
                    "input" : 20,
                    "interpolation" : "STEP",
                    "output" : 23
                }
            ]
        },
        {
            "channels" : [
                {
                    "sampler" : 0,
                    "target" : {
                        "node" : 1,
                        "path" : "translation"
                    }
                },
                {
                    "sampler" : 1,
                    "target" : {
                        "node" : 1,
                        "path" : "rotation"
                    }
                },
                {
                    "sampler" : 2,
                    "target" : {
                        "node" : 1,
                        "path" : "scale"
                    }
                }
            ],
            "name" : "Bloodgrass ExportAction",
            "samplers" : [
                {
                    "input" : 24,
                    "interpolation" : "LINEAR",
                    "output" : 25
                },
                {
                    "input" : 24,
                    "interpolation" : "LINEAR",
                    "output" : 26
                },
                {
                    "input" : 24,
                    "interpolation" : "LINEAR",
                    "output" : 27
                }
            ]
        },
        {
            "channels" : [
                {
                    "sampler" : 0,
                    "target" : {
                        "node" : 2,
                        "path" : "translation"
                    }
                },
                {
                    "sampler" : 1,
                    "target" : {
                        "node" : 2,
                        "path" : "rotation"
                    }
                },
                {
                    "sampler" : 2,
                    "target" : {
                        "node" : 2,
                        "path" : "scale"
                    }
                }
            ],
            "name" : "Asagao ExportAction.002",
            "samplers" : [
                {
                    "input" : 20,
                    "interpolation" : "STEP",
                    "output" : 28
                },
                {
                    "input" : 20,
                    "interpolation" : "STEP",
                    "output" : 29
                },
                {
                    "input" : 20,
                    "interpolation" : "STEP",
                    "output" : 30
                }
            ]
        }
    ],
    "materials" : [
        {
            "doubleSided" : true,
            "name" : "Leaf.002",
            "pbrMetallicRoughness" : {
                "baseColorFactor" : [
                    0.20749883353710175,
                    0.24909859895706177,
                    0.15940231084823608,
                    1
                ],
                "metallicFactor" : 0,
                "roughnessFactor" : 0.663636326789856
            }
        },
        {
            "doubleSided" : true,
            "name" : "Material.006",
            "pbrMetallicRoughness" : {
                "baseColorFactor" : [
                    0.15222345292568207,
                    0.11467188596725464,
                    0.2330154925584793,
                    1
                ],
                "metallicFactor" : 0,
                "roughnessFactor" : 0.6470588445663452
            }
        },
        {
            "doubleSided" : true,
            "name" : "Material.005",
            "pbrMetallicRoughness" : {
                "baseColorFactor" : [
                    1,
                    0.9179586172103882,
                    0.5130308270454407,
                    1
                ],
                "metallicFactor" : 0,
                "roughnessFactor" : 0.5
            }
        },
        {
            "doubleSided" : true,
            "name" : "Blood Grass.001",
            "pbrMetallicRoughness" : {
                "baseColorFactor" : [
                    0.13286367058753967,
                    0.054465483874082565,
                    0.06575392931699753,
                    1
                ],
                "metallicFactor" : 0,
                "roughnessFactor" : 0.5
            }
        }
    ],
    "meshes" : [
        {
            "name" : "Plane.037",
            "primitives" : [
                {
                    "attributes" : {
                        "POSITION" : 0,
                        "NORMAL" : 1,
                        "TEXCOORD_0" : 2
                    },
                    "indices" : 3,
                    "material" : 0
                },
                {
                    "attributes" : {
                        "POSITION" : 4,
                        "NORMAL" : 5,
                        "TEXCOORD_0" : 6
                    },
                    "indices" : 7,
                    "material" : 1
                },
                {
                    "attributes" : {
                        "POSITION" : 8,
                        "NORMAL" : 9,
                        "TEXCOORD_0" : 10
                    },
                    "indices" : 11,
                    "material" : 2
                }
            ]
        },
        {
            "name" : "Plane.036",
            "primitives" : [
                {
                    "attributes" : {
                        "POSITION" : 12,
                        "NORMAL" : 13,
                        "TEXCOORD_0" : 14
                    },
                    "indices" : 15,
                    "material" : 3
                }
            ]
        },
        {
            "name" : "Plane.034",
            "primitives" : [
                {
                    "attributes" : {
                        "POSITION" : 16,
                        "NORMAL" : 17,
                        "TEXCOORD_0" : 18
                    },
                    "indices" : 19,
                    "material" : 0
                }
            ]
        }
    ],
    "accessors" : [
        {
            "bufferView" : 0,
            "componentType" : 5126,
            "count" : 8485,
            "max" : [
                0.4956393241882324,
                0.5644357800483704,
                -0.010950922966003418
            ],
            "min" : [
                -0.7312717437744141,
                -0.5824609398841858,
                -6.318631649017334
            ],
            "type" : "VEC3"
        },
        {
            "bufferView" : 1,
            "componentType" : 5126,
            "count" : 8485,
            "type" : "VEC3"
        },
        {
            "bufferView" : 2,
            "componentType" : 5126,
            "count" : 8485,
            "type" : "VEC2"
        },
        {
            "bufferView" : 3,
            "componentType" : 5123,
            "count" : 33360,
            "type" : "SCALAR"
        },
        {
            "bufferView" : 4,
            "componentType" : 5126,
            "count" : 360,
            "max" : [
                0.5538716316223145,
                0.7421596646308899,
                -1.3958584070205688
            ],
            "min" : [
                -0.17935001850128174,
                0.127926304936409,
                -5.434358596801758
            ],
            "type" : "VEC3"
        },
        {
            "bufferView" : 5,
            "componentType" : 5126,
            "count" : 360,
            "type" : "VEC3"
        },
        {
            "bufferView" : 6,
            "componentType" : 5126,
            "count" : 360,
            "type" : "VEC2"
        },
        {
            "bufferView" : 7,
            "componentType" : 5123,
            "count" : 1728,
            "type" : "SCALAR"
        },
        {
            "bufferView" : 8,
            "componentType" : 5126,
            "count" : 477,
            "max" : [
                0.19882822036743164,
                0.40361645817756653,
                -1.7493233680725098
            ],
            "min" : [
                -0.0835145115852356,
                0.1351618617773056,
                -5.299562454223633
            ],
            "type" : "VEC3"
        },
        {
            "bufferView" : 9,
            "componentType" : 5126,
            "count" : 477,
            "type" : "VEC3"
        },
        {
            "bufferView" : 10,
            "componentType" : 5126,
            "count" : 477,
            "type" : "VEC2"
        },
        {
            "bufferView" : 11,
            "componentType" : 5123,
            "count" : 1971,
            "type" : "SCALAR"
        },
        {
            "bufferView" : 12,
            "componentType" : 5126,
            "count" : 8550,
            "max" : [
                3.122734308242798,
                1.9657557010650635,
                0.44487929344177246
            ],
            "min" : [
                -2.69711971282959,
                -3.0413711071014404,
                -5.898440837860107
            ],
            "type" : "VEC3"
        },
        {
            "bufferView" : 13,
            "componentType" : 5126,
            "count" : 8550,
            "type" : "VEC3"
        },
        {
            "bufferView" : 14,
            "componentType" : 5126,
            "count" : 8550,
            "type" : "VEC2"
        },
        {
            "bufferView" : 15,
            "componentType" : 5123,
            "count" : 23940,
            "type" : "SCALAR"
        },
        {
            "bufferView" : 16,
            "componentType" : 5126,
            "count" : 490,
            "max" : [
                0.09950828552246094,
                0.3900308907032013,
                -5.563713550567627
            ],
            "min" : [
                -0.43459367752075195,
                -0.05128537118434906,
                -6.318631649017334
            ],
            "type" : "VEC3"
        },
        {
            "bufferView" : 17,
            "componentType" : 5126,
            "count" : 490,
            "type" : "VEC3"
        },
        {
            "bufferView" : 18,
            "componentType" : 5126,
            "count" : 490,
            "type" : "VEC2"
        },
        {
            "bufferView" : 19,
            "componentType" : 5123,
            "count" : 1512,
            "type" : "SCALAR"
        },
        {
            "bufferView" : 20,
            "componentType" : 5126,
            "count" : 1,
            "max" : [
                0.041666666666666664
            ],
            "min" : [
                0.041666666666666664
            ],
            "type" : "SCALAR"
        },
        {
            "bufferView" : 21,
            "componentType" : 5126,
            "count" : 1,
            "type" : "VEC3"
        },
        {
            "bufferView" : 22,
            "componentType" : 5126,
            "count" : 1,
            "type" : "VEC4"
        },
        {
            "bufferView" : 23,
            "componentType" : 5126,
            "count" : 1,
            "type" : "VEC3"
        },
        {
            "bufferView" : 24,
            "componentType" : 5126,
            "count" : 33,
            "max" : [
                1.375
            ],
            "min" : [
                0.041666666666666664
            ],
            "type" : "SCALAR"
        },
        {
            "bufferView" : 25,
            "componentType" : 5126,
            "count" : 33,
            "type" : "VEC3"
        },
        {
            "bufferView" : 26,
            "componentType" : 5126,
            "count" : 33,
            "type" : "VEC4"
        },
        {
            "bufferView" : 27,
            "componentType" : 5126,
            "count" : 33,
            "type" : "VEC3"
        },
        {
            "bufferView" : 28,
            "componentType" : 5126,
            "count" : 1,
            "type" : "VEC3"
        },
        {
            "bufferView" : 29,
            "componentType" : 5126,
            "count" : 1,
            "type" : "VEC4"
        },
        {
            "bufferView" : 30,
            "componentType" : 5126,
            "count" : 1,
            "type" : "VEC3"
        }
    ],
    "bufferViews" : [
        {
            "buffer" : 0,
            "byteLength" : 101820,
            "byteOffset" : 0
        },
        {
            "buffer" : 0,
            "byteLength" : 101820,
            "byteOffset" : 101820
        },
        {
            "buffer" : 0,
            "byteLength" : 67880,
            "byteOffset" : 203640
        },
        {
            "buffer" : 0,
            "byteLength" : 66720,
            "byteOffset" : 271520
        },
        {
            "buffer" : 0,
            "byteLength" : 4320,
            "byteOffset" : 338240
        },
        {
            "buffer" : 0,
            "byteLength" : 4320,
            "byteOffset" : 342560
        },
        {
            "buffer" : 0,
            "byteLength" : 2880,
            "byteOffset" : 346880
        },
        {
            "buffer" : 0,
            "byteLength" : 3456,
            "byteOffset" : 349760
        },
        {
            "buffer" : 0,
            "byteLength" : 5724,
            "byteOffset" : 353216
        },
        {
            "buffer" : 0,
            "byteLength" : 5724,
            "byteOffset" : 358940
        },
        {
            "buffer" : 0,
            "byteLength" : 3816,
            "byteOffset" : 364664
        },
        {
            "buffer" : 0,
            "byteLength" : 3942,
            "byteOffset" : 368480
        },
        {
            "buffer" : 0,
            "byteLength" : 102600,
            "byteOffset" : 372424
        },
        {
            "buffer" : 0,
            "byteLength" : 102600,
            "byteOffset" : 475024
        },
        {
            "buffer" : 0,
            "byteLength" : 68400,
            "byteOffset" : 577624
        },
        {
            "buffer" : 0,
            "byteLength" : 47880,
            "byteOffset" : 646024
        },
        {
            "buffer" : 0,
            "byteLength" : 5880,
            "byteOffset" : 693904
        },
        {
            "buffer" : 0,
            "byteLength" : 5880,
            "byteOffset" : 699784
        },
        {
            "buffer" : 0,
            "byteLength" : 3920,
            "byteOffset" : 705664
        },
        {
            "buffer" : 0,
            "byteLength" : 3024,
            "byteOffset" : 709584
        },
        {
            "buffer" : 0,
            "byteLength" : 4,
            "byteOffset" : 712608
        },
        {
            "buffer" : 0,
            "byteLength" : 12,
            "byteOffset" : 712612
        },
        {
            "buffer" : 0,
            "byteLength" : 16,
            "byteOffset" : 712624
        },
        {
            "buffer" : 0,
            "byteLength" : 12,
            "byteOffset" : 712640
        },
        {
            "buffer" : 0,
            "byteLength" : 132,
            "byteOffset" : 712652
        },
        {
            "buffer" : 0,
            "byteLength" : 396,
            "byteOffset" : 712784
        },
        {
            "buffer" : 0,
            "byteLength" : 528,
            "byteOffset" : 713180
        },
        {
            "buffer" : 0,
            "byteLength" : 396,
            "byteOffset" : 713708
        },
        {
            "buffer" : 0,
            "byteLength" : 12,
            "byteOffset" : 714104
        },
        {
            "buffer" : 0,
            "byteLength" : 16,
            "byteOffset" : 714116
        },
        {
            "buffer" : 0,
            "byteLength" : 12,
            "byteOffset" : 714132
        }
    ],
    "buffers" : [
        {
            "byteLength" : 714144,
            "uri" : "data:application/octet-stream;base64,"
        }
    ]
}
