{
    "asset" : {
        "generator" : "Khronos glTF Blender I/O v1.6.16",
        "version" : "2.0"
    },
    "scene" : 0,
    "scenes" : [
        {
            "name" : "Scene",
            "nodes" : [
                0,
                1,
                2
            ]
        }
    ],
    "nodes" : [
        {
            "mesh" : 0,
            "name" : "Asagao Export.003",
            "rotation" : [
                0.27390149235725403,
                0.6519033908843994,
                -0.6519033908843994,
                0.27390149235725403
            ],
            "scale" : [
                0.16430170834064484,
                0.16430170834064484,
                0.16430170834064484
            ],
            "translation" : [
                -2.0887503623962402,
                0.7478252649307251,
                6.900941371917725
            ]
        },
        {
            "mesh" : 1,
            "name" : "Asagao Export.005",
            "rotation" : [
                -0.3210698068141937,
                0.630011260509491,
                -0.630011260509491,
                -0.3210698068141937
            ],
            "scale" : [
                0.16430170834064484,
                0.16430170834064484,
                0.16430170834064484
            ],
            "translation" : [
                2.374300956726074,
                1.0864536762237549,
                -0.2100825309753418
            ]
        },
        {
            "mesh" : 2,
            "name" : "Bloodgrass Export",
            "rotation" : [
                0.36761483550071716,
                0.6647348999977112,
                -0.6112473011016846,
                0.22217948734760284
            ],
            "scale" : [
                0.08618217706680298,
                0.08618219196796417,
                0.08618219196796417
            ],
            "translation" : [
                -1.026861310005188,
                0.8037170767784119,
                1.312354564666748
            ]
        }
    ],
    "animations" : [
        {
            "channels" : [
                {
                    "sampler" : 0,
                    "target" : {
                        "node" : 0,
                        "path" : "translation"
                    }
                },
                {
                    "sampler" : 1,
                    "target" : {
                        "node" : 0,
                        "path" : "rotation"
                    }
                },
                {
                    "sampler" : 2,
                    "target" : {
                        "node" : 0,
                        "path" : "scale"
                    }
                },
                {
                    "sampler" : 3,
                    "target" : {
                        "node" : 1,
                        "path" : "translation"
                    }
                },
                {
                    "sampler" : 4,
                    "target" : {
                        "node" : 1,
                        "path" : "rotation"
                    }
                },
                {
                    "sampler" : 5,
                    "target" : {
                        "node" : 1,
                        "path" : "scale"
                    }
                }
            ],
            "name" : "Asagao ExportAction",
            "samplers" : [
                {
                    "input" : 28,
                    "interpolation" : "STEP",
                    "output" : 29
                },
                {
                    "input" : 28,
                    "interpolation" : "STEP",
                    "output" : 30
                },
                {
                    "input" : 28,
                    "interpolation" : "STEP",
                    "output" : 31
                },
                {
                    "input" : 28,
                    "interpolation" : "STEP",
                    "output" : 32
                },
                {
                    "input" : 28,
                    "interpolation" : "STEP",
                    "output" : 33
                },
                {
                    "input" : 28,
                    "interpolation" : "STEP",
                    "output" : 34
                }
            ]
        },
        {
            "channels" : [
                {
                    "sampler" : 0,
                    "target" : {
                        "node" : 1,
                        "path" : "translation"
                    }
                },
                {
                    "sampler" : 1,
                    "target" : {
                        "node" : 1,
                        "path" : "rotation"
                    }
                },
                {
                    "sampler" : 2,
                    "target" : {
                        "node" : 1,
                        "path" : "scale"
                    }
                }
            ],
            "name" : "Asagao ExportAction_Asagao Export.004",
            "samplers" : [
                {
                    "input" : 28,
                    "interpolation" : "STEP",
                    "output" : 35
                },
                {
                    "input" : 28,
                    "interpolation" : "STEP",
                    "output" : 36
                },
                {
                    "input" : 28,
                    "interpolation" : "STEP",
                    "output" : 37
                }
            ]
        },
        {
            "channels" : [
                {
                    "sampler" : 0,
                    "target" : {
                        "node" : 2,
                        "path" : "translation"
                    }
                },
                {
                    "sampler" : 1,
                    "target" : {
                        "node" : 2,
                        "path" : "rotation"
                    }
                },
                {
                    "sampler" : 2,
                    "target" : {
                        "node" : 2,
                        "path" : "scale"
                    }
                }
            ],
            "name" : "Bloodgrass ExportAction",
            "samplers" : [
                {
                    "input" : 38,
                    "interpolation" : "LINEAR",
                    "output" : 39
                },
                {
                    "input" : 38,
                    "interpolation" : "LINEAR",
                    "output" : 40
                },
                {
                    "input" : 38,
                    "interpolation" : "LINEAR",
                    "output" : 41
                }
            ]
        }
    ],
    "materials" : [
        {
            "doubleSided" : true,
            "name" : "Leaf.003",
            "pbrMetallicRoughness" : {
                "baseColorFactor" : [
                    0.20749883353710175,
                    0.24909859895706177,
                    0.15940231084823608,
                    1
                ],
                "metallicFactor" : 0,
                "roughnessFactor" : 0.663636326789856
            }
        },
        {
            "doubleSided" : true,
            "name" : "Material.004",
            "pbrMetallicRoughness" : {
                "baseColorFactor" : [
                    0.15222345292568207,
                    0.11467188596725464,
                    0.2330154925584793,
                    1
                ],
                "metallicFactor" : 0,
                "roughnessFactor" : 0.6470588445663452
            }
        },
        {
            "doubleSided" : true,
            "name" : "Material.007",
            "pbrMetallicRoughness" : {
                "baseColorFactor" : [
                    1,
                    0.9179586172103882,
                    0.5130308270454407,
                    1
                ],
                "metallicFactor" : 0,
                "roughnessFactor" : 0.5
            }
        },
        {
            "doubleSided" : true,
            "name" : "Blood Grass.001",
            "pbrMetallicRoughness" : {
                "baseColorFactor" : [
                    0.13286367058753967,
                    0.054465483874082565,
                    0.06575392931699753,
                    1
                ],
                "metallicFactor" : 0,
                "roughnessFactor" : 0.5
            }
        }
    ],
    "meshes" : [
        {
            "name" : "Plane.032",
            "primitives" : [
                {
                    "attributes" : {
                        "POSITION" : 0,
                        "NORMAL" : 1,
                        "TEXCOORD_0" : 2
                    },
                    "indices" : 3,
                    "material" : 0
                },
                {
                    "attributes" : {
                        "POSITION" : 4,
                        "NORMAL" : 5,
                        "TEXCOORD_0" : 6
                    },
                    "indices" : 7,
                    "material" : 1
                },
                {
                    "attributes" : {
                        "POSITION" : 8,
                        "NORMAL" : 9,
                        "TEXCOORD_0" : 10
                    },
                    "indices" : 11,
                    "material" : 2
                }
            ]
        },
        {
            "name" : "Plane.035",
            "primitives" : [
                {
                    "attributes" : {
                        "POSITION" : 12,
                        "NORMAL" : 13,
                        "TEXCOORD_0" : 14
                    },
                    "indices" : 15,
                    "material" : 0
                },
                {
                    "attributes" : {
                        "POSITION" : 16,
                        "NORMAL" : 17,
                        "TEXCOORD_0" : 18
                    },
                    "indices" : 19,
                    "material" : 1
                },
                {
                    "attributes" : {
                        "POSITION" : 20,
                        "NORMAL" : 21,
                        "TEXCOORD_0" : 22
                    },
                    "indices" : 23,
                    "material" : 2
                }
            ]
        },
        {
            "name" : "Plane.036",
            "primitives" : [
                {
                    "attributes" : {
                        "POSITION" : 24,
                        "NORMAL" : 25,
                        "TEXCOORD_0" : 26
                    },
                    "indices" : 27,
                    "material" : 3
                }
            ]
        }
    ],
    "accessors" : [
        {
            "bufferView" : 0,
            "componentType" : 5126,
            "count" : 9049,
            "max" : [
                0.4956393241882324,
                0.5644357800483704,
                -0.010950922966003418
            ],
            "min" : [
                -0.7988238334655762,
                -0.5824609398841858,
                -6.318631649017334
            ],
            "type" : "VEC3"
        },
        {
            "bufferView" : 1,
            "componentType" : 5126,
            "count" : 9049,
            "type" : "VEC3"
        },
        {
            "bufferView" : 2,
            "componentType" : 5126,
            "count" : 9049,
            "type" : "VEC2"
        },
        {
            "bufferView" : 3,
            "componentType" : 5123,
            "count" : 33360,
            "type" : "SCALAR"
        },
        {
            "bufferView" : 4,
            "componentType" : 5126,
            "count" : 360,
            "max" : [
                0.5538716316223145,
                0.7421596646308899,
                -1.3958584070205688
            ],
            "min" : [
                -0.2963219881057739,
                0.05497633293271065,
                -5.573938846588135
            ],
            "type" : "VEC3"
        },
        {
            "bufferView" : 5,
            "componentType" : 5126,
            "count" : 360,
            "type" : "VEC3"
        },
        {
            "bufferView" : 6,
            "componentType" : 5126,
            "count" : 360,
            "type" : "VEC2"
        },
        {
            "bufferView" : 7,
            "componentType" : 5123,
            "count" : 1728,
            "type" : "SCALAR"
        },
        {
            "bufferView" : 8,
            "componentType" : 5126,
            "count" : 477,
            "max" : [
                0.19882822036743164,
                0.40361645817756653,
                -1.7493233680725098
            ],
            "min" : [
                -0.10497657209634781,
                0.07461840659379959,
                -5.30480432510376
            ],
            "type" : "VEC3"
        },
        {
            "bufferView" : 9,
            "componentType" : 5126,
            "count" : 477,
            "type" : "VEC3"
        },
        {
            "bufferView" : 10,
            "componentType" : 5126,
            "count" : 477,
            "type" : "VEC2"
        },
        {
            "bufferView" : 11,
            "componentType" : 5123,
            "count" : 1971,
            "type" : "SCALAR"
        },
        {
            "bufferView" : 12,
            "componentType" : 5126,
            "count" : 2762,
            "max" : [
                0.2396998405456543,
                0.42915546894073486,
                -3.9655537605285645
            ],
            "min" : [
                -0.7988238334655762,
                -0.4743044674396515,
                -6.318631649017334
            ],
            "type" : "VEC3"
        },
        {
            "bufferView" : 13,
            "componentType" : 5126,
            "count" : 2762,
            "type" : "VEC3"
        },
        {
            "bufferView" : 14,
            "componentType" : 5126,
            "count" : 2762,
            "type" : "VEC2"
        },
        {
            "bufferView" : 15,
            "componentType" : 5123,
            "count" : 9765,
            "type" : "SCALAR"
        },
        {
            "bufferView" : 16,
            "componentType" : 5126,
            "count" : 240,
            "max" : [
                0.32296741008758545,
                0.49723222851753235,
                -4.649670600891113
            ],
            "min" : [
                -0.1950623095035553,
                0.1121009811758995,
                -5.470801830291748
            ],
            "type" : "VEC3"
        },
        {
            "bufferView" : 17,
            "componentType" : 5126,
            "count" : 240,
            "type" : "VEC3"
        },
        {
            "bufferView" : 18,
            "componentType" : 5126,
            "count" : 240,
            "type" : "VEC2"
        },
        {
            "bufferView" : 19,
            "componentType" : 5123,
            "count" : 1152,
            "type" : "SCALAR"
        },
        {
            "bufferView" : 20,
            "componentType" : 5126,
            "count" : 318,
            "max" : [
                0.15758785605430603,
                0.35630255937576294,
                -4.629147529602051
            ],
            "min" : [
                -0.10497657209634781,
                0.07461840659379959,
                -5.30480432510376
            ],
            "type" : "VEC3"
        },
        {
            "bufferView" : 21,
            "componentType" : 5126,
            "count" : 318,
            "type" : "VEC3"
        },
        {
            "bufferView" : 22,
            "componentType" : 5126,
            "count" : 318,
            "type" : "VEC2"
        },
        {
            "bufferView" : 23,
            "componentType" : 5123,
            "count" : 1314,
            "type" : "SCALAR"
        },
        {
            "bufferView" : 24,
            "componentType" : 5126,
            "count" : 8550,
            "max" : [
                3.122734308242798,
                1.9657557010650635,
                0.44487929344177246
            ],
            "min" : [
                -2.69711971282959,
                -3.0413711071014404,
                -5.898440837860107
            ],
            "type" : "VEC3"
        },
        {
            "bufferView" : 25,
            "componentType" : 5126,
            "count" : 8550,
            "type" : "VEC3"
        },
        {
            "bufferView" : 26,
            "componentType" : 5126,
            "count" : 8550,
            "type" : "VEC2"
        },
        {
            "bufferView" : 27,
            "componentType" : 5123,
            "count" : 23940,
            "type" : "SCALAR"
        },
        {
            "bufferView" : 28,
            "componentType" : 5126,
            "count" : 1,
            "max" : [
                0.041666666666666664
            ],
            "min" : [
                0.041666666666666664
            ],
            "type" : "SCALAR"
        },
        {
            "bufferView" : 29,
            "componentType" : 5126,
            "count" : 1,
            "type" : "VEC3"
        },
        {
            "bufferView" : 30,
            "componentType" : 5126,
            "count" : 1,
            "type" : "VEC4"
        },
        {
            "bufferView" : 31,
            "componentType" : 5126,
            "count" : 1,
            "type" : "VEC3"
        },
        {
            "bufferView" : 32,
            "componentType" : 5126,
            "count" : 1,
            "type" : "VEC3"
        },
        {
            "bufferView" : 33,
            "componentType" : 5126,
            "count" : 1,
            "type" : "VEC4"
        },
        {
            "bufferView" : 34,
            "componentType" : 5126,
            "count" : 1,
            "type" : "VEC3"
        },
        {
            "bufferView" : 35,
            "componentType" : 5126,
            "count" : 1,
            "type" : "VEC3"
        },
        {
            "bufferView" : 36,
            "componentType" : 5126,
            "count" : 1,
            "type" : "VEC4"
        },
        {
            "bufferView" : 37,
            "componentType" : 5126,
            "count" : 1,
            "type" : "VEC3"
        },
        {
            "bufferView" : 38,
            "componentType" : 5126,
            "count" : 33,
            "max" : [
                1.375
            ],
            "min" : [
                0.041666666666666664
            ],
            "type" : "SCALAR"
        },
        {
            "bufferView" : 39,
            "componentType" : 5126,
            "count" : 33,
            "type" : "VEC3"
        },
        {
            "bufferView" : 40,
            "componentType" : 5126,
            "count" : 33,
            "type" : "VEC4"
        },
        {
            "bufferView" : 41,
            "componentType" : 5126,
            "count" : 33,
            "type" : "VEC3"
        }
    ],
    "bufferViews" : [
        {
            "buffer" : 0,
            "byteLength" : 108588,
            "byteOffset" : 0
        },
        {
            "buffer" : 0,
            "byteLength" : 108588,
            "byteOffset" : 108588
        },
        {
            "buffer" : 0,
            "byteLength" : 72392,
            "byteOffset" : 217176
        },
        {
            "buffer" : 0,
            "byteLength" : 66720,
            "byteOffset" : 289568
        },
        {
            "buffer" : 0,
            "byteLength" : 4320,
            "byteOffset" : 356288
        },
        {
            "buffer" : 0,
            "byteLength" : 4320,
            "byteOffset" : 360608
        },
        {
            "buffer" : 0,
            "byteLength" : 2880,
            "byteOffset" : 364928
        },
        {
            "buffer" : 0,
            "byteLength" : 3456,
            "byteOffset" : 367808
        },
        {
            "buffer" : 0,
            "byteLength" : 5724,
            "byteOffset" : 371264
        },
        {
            "buffer" : 0,
            "byteLength" : 5724,
            "byteOffset" : 376988
        },
        {
            "buffer" : 0,
            "byteLength" : 3816,
            "byteOffset" : 382712
        },
        {
            "buffer" : 0,
            "byteLength" : 3942,
            "byteOffset" : 386528
        },
        {
            "buffer" : 0,
            "byteLength" : 33144,
            "byteOffset" : 390472
        },
        {
            "buffer" : 0,
            "byteLength" : 33144,
            "byteOffset" : 423616
        },
        {
            "buffer" : 0,
            "byteLength" : 22096,
            "byteOffset" : 456760
        },
        {
            "buffer" : 0,
            "byteLength" : 19530,
            "byteOffset" : 478856
        },
        {
            "buffer" : 0,
            "byteLength" : 2880,
            "byteOffset" : 498388
        },
        {
            "buffer" : 0,
            "byteLength" : 2880,
            "byteOffset" : 501268
        },
        {
            "buffer" : 0,
            "byteLength" : 1920,
            "byteOffset" : 504148
        },
        {
            "buffer" : 0,
            "byteLength" : 2304,
            "byteOffset" : 506068
        },
        {
            "buffer" : 0,
            "byteLength" : 3816,
            "byteOffset" : 508372
        },
        {
            "buffer" : 0,
            "byteLength" : 3816,
            "byteOffset" : 512188
        },
        {
            "buffer" : 0,
            "byteLength" : 2544,
            "byteOffset" : 516004
        },
        {
            "buffer" : 0,
            "byteLength" : 2628,
            "byteOffset" : 518548
        },
        {
            "buffer" : 0,
            "byteLength" : 102600,
            "byteOffset" : 521176
        },
        {
            "buffer" : 0,
            "byteLength" : 102600,
            "byteOffset" : 623776
        },
        {
            "buffer" : 0,
            "byteLength" : 68400,
            "byteOffset" : 726376
        },
        {
            "buffer" : 0,
            "byteLength" : 47880,
            "byteOffset" : 794776
        },
        {
            "buffer" : 0,
            "byteLength" : 4,
            "byteOffset" : 842656
        },
        {
            "buffer" : 0,
            "byteLength" : 12,
            "byteOffset" : 842660
        },
        {
            "buffer" : 0,
            "byteLength" : 16,
            "byteOffset" : 842672
        },
        {
            "buffer" : 0,
            "byteLength" : 12,
            "byteOffset" : 842688
        },
        {
            "buffer" : 0,
            "byteLength" : 12,
            "byteOffset" : 842700
        },
        {
            "buffer" : 0,
            "byteLength" : 16,
            "byteOffset" : 842712
        },
        {
            "buffer" : 0,
            "byteLength" : 12,
            "byteOffset" : 842728
        },
        {
            "buffer" : 0,
            "byteLength" : 12,
            "byteOffset" : 842740
        },
        {
            "buffer" : 0,
            "byteLength" : 16,
            "byteOffset" : 842752
        },
        {
            "buffer" : 0,
            "byteLength" : 12,
            "byteOffset" : 842768
        },
        {
            "buffer" : 0,
            "byteLength" : 132,
            "byteOffset" : 842780
        },
        {
            "buffer" : 0,
            "byteLength" : 396,
            "byteOffset" : 842912
        },
        {
            "buffer" : 0,
            "byteLength" : 528,
            "byteOffset" : 843308
        },
        {
            "buffer" : 0,
            "byteLength" : 396,
            "byteOffset" : 843836
        }
    ],
    "buffers" : [
        {
            "byteLength" : 844232,
            "uri" : "data:application/octet-stream;base64,"
        }
    ]
}
