{
    "asset" : {
        "generator" : "Khronos glTF Blender I/O v1.6.16",
        "version" : "2.0"
    },
    "scene" : 0,
    "scenes" : [
        {
            "name" : "Scene",
            "nodes" : [
                0
            ]
        }
    ],
    "nodes" : [
        {
            "mesh" : 0,
            "name" : "rainSystem",
            "rotation" : [
                0.5900022983551025,
                0.3897400498390198,
                0.3897400498390198,
                0.5900022387504578
            ],
            "scale" : [
                0.1449897289276123,
                0.1449897289276123,
                0.0021555116400122643
            ],
            "translation" : [
                -1.4908385276794434,
                1.8735873699188232,
                7.452907562255859
            ]
        }
    ],
    "materials" : [
        {
            "doubleSided" : true,
            "emissiveFactor" : [
                0.3588402569293976,
                0.3588402569293976,
                0.3588402569293976
            ],
            "name" : "RainMaterial",
            "pbrMetallicRoughness" : {
                "baseColorFactor" : [
                    1,
                    0.98930823802948,
                    0.9576391577720642,
                    1
                ],
                "metallicFactor" : 0,
                "roughnessFactor" : 0.5
            }
        }
    ],
    "meshes" : [
        {
            "name" : "Plane.029",
            "primitives" : [
                {
                    "attributes" : {
                        "POSITION" : 0,
                        "NORMAL" : 1,
                        "TEXCOORD_0" : 2
                    },
                    "indices" : 3,
                    "material" : 0
                }
            ]
        }
    ],
    "accessors" : [
        {
            "bufferView" : 0,
            "componentType" : 5126,
            "count" : 80,
            "max" : [
                9.67424488067627,
                2.38647785977264e-08,
                105.20282745361328
            ],
            "min" : [
                5.560889720916748,
                -1.429875169378647e-07,
                -179.86224365234375
            ],
            "type" : "VEC3"
        },
        {
            "bufferView" : 1,
            "componentType" : 5126,
            "count" : 80,
            "type" : "VEC3"
        },
        {
            "bufferView" : 2,
            "componentType" : 5126,
            "count" : 80,
            "type" : "VEC2"
        },
        {
            "bufferView" : 3,
            "componentType" : 5123,
            "count" : 120,
            "type" : "SCALAR"
        }
    ],
    "bufferViews" : [
        {
            "buffer" : 0,
            "byteLength" : 960,
            "byteOffset" : 0
        },
        {
            "buffer" : 0,
            "byteLength" : 960,
            "byteOffset" : 960
        },
        {
            "buffer" : 0,
            "byteLength" : 640,
            "byteOffset" : 1920
        },
        {
            "buffer" : 0,
            "byteLength" : 240,
            "byteOffset" : 2560
        }
    ],
    "buffers" : [
        {
            "byteLength" : 2800,
            "uri" : "data:application/octet-stream;base64,"
        }
    ]
}
