{
    "asset" : {
        "generator" : "Khronos glTF Blender I/O v1.6.16",
        "version" : "2.0"
    },
    "scene" : 0,
    "scenes" : [
        {
            "name" : "Scene",
            "nodes" : [
                0
            ]
        }
    ],
    "nodes" : [
        {
            "mesh" : 0,
            "name" : "Bloodgrass Export",
            "rotation" : [
                0.36761483550071716,
                0.6647348999977112,
                -0.6112473011016846,
                0.22217948734760284
            ],
            "scale" : [
                0.08618217706680298,
                0.08618219196796417,
                0.08618219196796417
            ],
            "translation" : [
                -1.026861310005188,
                0.8037170767784119,
                1.312354564666748
            ]
        }
    ],
    "animations" : [
        {
            "channels" : [
                {
                    "sampler" : 0,
                    "target" : {
                        "node" : 0,
                        "path" : "translation"
                    }
                },
                {
                    "sampler" : 1,
                    "target" : {
                        "node" : 0,
                        "path" : "rotation"
                    }
                },
                {
                    "sampler" : 2,
                    "target" : {
                        "node" : 0,
                        "path" : "scale"
                    }
                }
            ],
            "name" : "Bloodgrass ExportAction",
            "samplers" : [
                {
                    "input" : 4,
                    "interpolation" : "LINEAR",
                    "output" : 5
                },
                {
                    "input" : 4,
                    "interpolation" : "LINEAR",
                    "output" : 6
                },
                {
                    "input" : 4,
                    "interpolation" : "LINEAR",
                    "output" : 7
                }
            ]
        }
    ],
    "materials" : [
        {
            "doubleSided" : true,
            "name" : "Blood Grass.001",
            "pbrMetallicRoughness" : {
                "baseColorFactor" : [
                    0.13286367058753967,
                    0.054465483874082565,
                    0.06575392931699753,
                    1
                ],
                "metallicFactor" : 0,
                "roughnessFactor" : 0.5
            }
        }
    ],
    "meshes" : [
        {
            "name" : "Plane.036",
            "primitives" : [
                {
                    "attributes" : {
                        "POSITION" : 0,
                        "NORMAL" : 1,
                        "TEXCOORD_0" : 2
                    },
                    "indices" : 3,
                    "material" : 0
                }
            ]
        }
    ],
    "accessors" : [
        {
            "bufferView" : 0,
            "componentType" : 5126,
            "count" : 8550,
            "max" : [
                3.122734308242798,
                1.9657557010650635,
                0.44487929344177246
            ],
            "min" : [
                -2.69711971282959,
                -3.0413711071014404,
                -5.898440837860107
            ],
            "type" : "VEC3"
        },
        {
            "bufferView" : 1,
            "componentType" : 5126,
            "count" : 8550,
            "type" : "VEC3"
        },
        {
            "bufferView" : 2,
            "componentType" : 5126,
            "count" : 8550,
            "type" : "VEC2"
        },
        {
            "bufferView" : 3,
            "componentType" : 5123,
            "count" : 23940,
            "type" : "SCALAR"
        },
        {
            "bufferView" : 4,
            "componentType" : 5126,
            "count" : 22,
            "max" : [
                0.9166666666666666
            ],
            "min" : [
                0.041666666666666664
            ],
            "type" : "SCALAR"
        },
        {
            "bufferView" : 5,
            "componentType" : 5126,
            "count" : 22,
            "type" : "VEC3"
        },
        {
            "bufferView" : 6,
            "componentType" : 5126,
            "count" : 22,
            "type" : "VEC4"
        },
        {
            "bufferView" : 7,
            "componentType" : 5126,
            "count" : 22,
            "type" : "VEC3"
        }
    ],
    "bufferViews" : [
        {
            "buffer" : 0,
            "byteLength" : 102600,
            "byteOffset" : 0
        },
        {
            "buffer" : 0,
            "byteLength" : 102600,
            "byteOffset" : 102600
        },
        {
            "buffer" : 0,
            "byteLength" : 68400,
            "byteOffset" : 205200
        },
        {
            "buffer" : 0,
            "byteLength" : 47880,
            "byteOffset" : 273600
        },
        {
            "buffer" : 0,
            "byteLength" : 88,
            "byteOffset" : 321480
        },
        {
            "buffer" : 0,
            "byteLength" : 264,
            "byteOffset" : 321568
        },
        {
            "buffer" : 0,
            "byteLength" : 352,
            "byteOffset" : 321832
        },
        {
            "buffer" : 0,
            "byteLength" : 264,
            "byteOffset" : 322184
        }
    ],
    "buffers" : [
        {
            "byteLength" : 322448,
            "uri" : "data:application/octet-stream;base64,"
        }
    ]
}
