{
    "asset" : {
        "generator" : "Khronos glTF Blender I/O v1.6.16",
        "version" : "2.0"
    },
    "extensionsUsed" : [
        "KHR_materials_transmission"
    ],
    "scene" : 0,
    "scenes" : [
        {
            "name" : "Scene",
            "nodes" : [
                0
            ]
        }
    ],
    "nodes" : [
        {
            "mesh" : 0,
            "name" : "kitchenWindow.002",
            "rotation" : [
                0.7071068286895752,
                -0.7071068286895752,
                0,
                1.3767879636361613e-07
            ],
            "scale" : [
                1.32322359085083,
                0.40494391322135925,
                1.32322359085083
            ],
            "translation" : [
                -1.5266724824905396,
                2.555617570877075,
                6.899536609649658
            ]
        }
    ],
    "materials" : [
        {
            "doubleSided" : true,
            "name" : "doorMaterial",
            "pbrMetallicRoughness" : {
                "baseColorFactor" : [
                    0.6521753668785095,
                    0.677592396736145,
                    0.6981921792030334,
                    1
                ],
                "metallicFactor" : 0,
                "roughnessFactor" : 0.7132352590560913
            }
        },
        {
            "alphaMode" : "BLEND",
            "doubleSided" : true,
            "extensions" : {
                "KHR_materials_transmission" : {
                    "transmissionFactor" : 1
                }
            },
            "name" : "upArrowDoorMaterial4",
            "pbrMetallicRoughness" : {
                "baseColorFactor" : [
                    0.800000011920929,
                    0.800000011920929,
                    0.800000011920929,
                    1
                ],
                "metallicFactor" : 0,
                "roughnessFactor" : 0
            }
        }
    ],
    "meshes" : [
        {
            "name" : "Cylinder.005",
            "primitives" : [
                {
                    "attributes" : {
                        "POSITION" : 0,
                        "NORMAL" : 1,
                        "TEXCOORD_0" : 2
                    },
                    "indices" : 3,
                    "material" : 0
                },
                {
                    "attributes" : {
                        "POSITION" : 4,
                        "NORMAL" : 5,
                        "TEXCOORD_0" : 6
                    },
                    "indices" : 7,
                    "material" : 1
                }
            ]
        }
    ],
    "accessors" : [
        {
            "bufferView" : 0,
            "componentType" : 5126,
            "count" : 64,
            "max" : [
                0.5270230770111084,
                0.7153687477111816,
                -0.07406637072563171
            ],
            "min" : [
                0.169435515999794,
                -0.7084125280380249,
                -0.09979736804962158
            ],
            "type" : "VEC3"
        },
        {
            "bufferView" : 1,
            "componentType" : 5126,
            "count" : 64,
            "type" : "VEC3"
        },
        {
            "bufferView" : 2,
            "componentType" : 5126,
            "count" : 64,
            "type" : "VEC2"
        },
        {
            "bufferView" : 3,
            "componentType" : 5123,
            "count" : 144,
            "type" : "SCALAR"
        },
        {
            "bufferView" : 4,
            "componentType" : 5126,
            "count" : 4,
            "max" : [
                0.499237060546875,
                0.6269868016242981,
                -0.08125920593738556
            ],
            "min" : [
                0.19722147285938263,
                -0.6200258731842041,
                -0.08130738139152527
            ],
            "type" : "VEC3"
        },
        {
            "bufferView" : 5,
            "componentType" : 5126,
            "count" : 4,
            "type" : "VEC3"
        },
        {
            "bufferView" : 6,
            "componentType" : 5126,
            "count" : 4,
            "type" : "VEC2"
        },
        {
            "bufferView" : 7,
            "componentType" : 5123,
            "count" : 6,
            "type" : "SCALAR"
        }
    ],
    "bufferViews" : [
        {
            "buffer" : 0,
            "byteLength" : 768,
            "byteOffset" : 0
        },
        {
            "buffer" : 0,
            "byteLength" : 768,
            "byteOffset" : 768
        },
        {
            "buffer" : 0,
            "byteLength" : 512,
            "byteOffset" : 1536
        },
        {
            "buffer" : 0,
            "byteLength" : 288,
            "byteOffset" : 2048
        },
        {
            "buffer" : 0,
            "byteLength" : 48,
            "byteOffset" : 2336
        },
        {
            "buffer" : 0,
            "byteLength" : 48,
            "byteOffset" : 2384
        },
        {
            "buffer" : 0,
            "byteLength" : 32,
            "byteOffset" : 2432
        },
        {
            "buffer" : 0,
            "byteLength" : 12,
            "byteOffset" : 2464
        }
    ],
    "buffers" : [
        {
            "byteLength" : 2476,
            "uri" : "sinkWindow.bin"
        }
    ]
}
