{
    "asset" : {
        "generator" : "Khronos glTF Blender I/O v1.6.16",
        "version" : "2.0"
    },
    "scene" : 0,
    "scenes" : [
        {
            "name" : "Scene",
            "nodes" : [
                0
            ]
        }
    ],
    "nodes" : [
        {
            "mesh" : 0,
            "name" : "dishes",
            "rotation" : [
                0,
                0.9998323917388916,
                0,
                0.01830912195146084
            ],
            "scale" : [
                0.7080199718475342,
                0.7080199718475342,
                0.7080199718475342
            ],
            "translation" : [
                -1.6815412044525146,
                0.8605464100837708,
                6.490863800048828
            ]
        }
    ],
    "materials" : [
        {
            "doubleSided" : true,
            "name" : "plateMaterial",
            "pbrMetallicRoughness" : {
                "baseColorFactor" : [
                    0.800000011920929,
                    0.800000011920929,
                    0.800000011920929,
                    1
                ],
                "metallicFactor" : 0,
                "roughnessFactor" : 0.5
            }
        },
        {
            "doubleSided" : true,
            "name" : "plate2material",
            "pbrMetallicRoughness" : {
                "baseColorFactor" : [
                    0.3505564332008362,
                    0.3505564332008362,
                    0.3505564332008362,
                    1
                ],
                "metallicFactor" : 0,
                "roughnessFactor" : 0.5
            }
        },
        {
            "doubleSided" : true,
            "name" : "plate3Material",
            "pbrMetallicRoughness" : {
                "baseColorFactor" : [
                    0.6151774525642395,
                    0.4423656761646271,
                    0.3583069443702698,
                    1
                ],
                "metallicFactor" : 0,
                "roughnessFactor" : 0.5
            }
        },
        {
            "doubleSided" : true,
            "name" : "forkMaterial",
            "pbrMetallicRoughness" : {
                "baseColorFactor" : [
                    0.800000011920929,
                    0.800000011920929,
                    0.800000011920929,
                    1
                ],
                "roughnessFactor" : 0.5
            }
        }
    ],
    "meshes" : [
        {
            "name" : "Cylinder.006",
            "primitives" : [
                {
                    "attributes" : {
                        "POSITION" : 0,
                        "NORMAL" : 1,
                        "TEXCOORD_0" : 2
                    },
                    "indices" : 3,
                    "material" : 0
                },
                {
                    "attributes" : {
                        "POSITION" : 4,
                        "NORMAL" : 5,
                        "TEXCOORD_0" : 6
                    },
                    "indices" : 7,
                    "material" : 1
                },
                {
                    "attributes" : {
                        "POSITION" : 8,
                        "NORMAL" : 9,
                        "TEXCOORD_0" : 10
                    },
                    "indices" : 11,
                    "material" : 2
                },
                {
                    "attributes" : {
                        "POSITION" : 12,
                        "NORMAL" : 13,
                        "TEXCOORD_0" : 14
                    },
                    "indices" : 15,
                    "material" : 3
                }
            ]
        }
    ],
    "accessors" : [
        {
            "bufferView" : 0,
            "componentType" : 5126,
            "count" : 5272,
            "max" : [
                0.23907887935638428,
                0.5210764408111572,
                0.24604369699954987
            ],
            "min" : [
                -1.5632774829864502,
                -0.15911763906478882,
                -0.45488491654396057
            ],
            "type" : "VEC3"
        },
        {
            "bufferView" : 1,
            "componentType" : 5126,
            "count" : 5272,
            "type" : "VEC3"
        },
        {
            "bufferView" : 2,
            "componentType" : 5126,
            "count" : 5272,
            "type" : "VEC2"
        },
        {
            "bufferView" : 3,
            "componentType" : 5123,
            "count" : 19344,
            "type" : "SCALAR"
        },
        {
            "bufferView" : 4,
            "componentType" : 5126,
            "count" : 2562,
            "max" : [
                -0.2044057846069336,
                0.45265963673591614,
                0.11776503920555115
            ],
            "min" : [
                -1.5632774829864502,
                -0.1470234990119934,
                -0.45488491654396057
            ],
            "type" : "VEC3"
        },
        {
            "bufferView" : 5,
            "componentType" : 5126,
            "count" : 2562,
            "type" : "VEC3"
        },
        {
            "bufferView" : 6,
            "componentType" : 5126,
            "count" : 2562,
            "type" : "VEC2"
        },
        {
            "bufferView" : 7,
            "componentType" : 5123,
            "count" : 9132,
            "type" : "SCALAR"
        },
        {
            "bufferView" : 8,
            "componentType" : 5126,
            "count" : 2780,
            "max" : [
                -0.245147705078125,
                0.33637407422065735,
                0.16253924369812012
            ],
            "min" : [
                -1.5632774829864502,
                -0.1470234990119934,
                -0.45488491654396057
            ],
            "type" : "VEC3"
        },
        {
            "bufferView" : 9,
            "componentType" : 5126,
            "count" : 2780,
            "type" : "VEC3"
        },
        {
            "bufferView" : 10,
            "componentType" : 5126,
            "count" : 2780,
            "type" : "VEC2"
        },
        {
            "bufferView" : 11,
            "componentType" : 5123,
            "count" : 9720,
            "type" : "SCALAR"
        },
        {
            "bufferView" : 12,
            "componentType" : 5126,
            "count" : 1315,
            "max" : [
                -0.7710937261581421,
                0.2092399001121521,
                0.23687879741191864
            ],
            "min" : [
                -0.9250391721725464,
                0.19927236437797546,
                -0.024169176816940308
            ],
            "type" : "VEC3"
        },
        {
            "bufferView" : 13,
            "componentType" : 5126,
            "count" : 1315,
            "type" : "VEC3"
        },
        {
            "bufferView" : 14,
            "componentType" : 5126,
            "count" : 1315,
            "type" : "VEC2"
        },
        {
            "bufferView" : 15,
            "componentType" : 5123,
            "count" : 3240,
            "type" : "SCALAR"
        }
    ],
    "bufferViews" : [
        {
            "buffer" : 0,
            "byteLength" : 63264,
            "byteOffset" : 0
        },
        {
            "buffer" : 0,
            "byteLength" : 63264,
            "byteOffset" : 63264
        },
        {
            "buffer" : 0,
            "byteLength" : 42176,
            "byteOffset" : 126528
        },
        {
            "buffer" : 0,
            "byteLength" : 38688,
            "byteOffset" : 168704
        },
        {
            "buffer" : 0,
            "byteLength" : 30744,
            "byteOffset" : 207392
        },
        {
            "buffer" : 0,
            "byteLength" : 30744,
            "byteOffset" : 238136
        },
        {
            "buffer" : 0,
            "byteLength" : 20496,
            "byteOffset" : 268880
        },
        {
            "buffer" : 0,
            "byteLength" : 18264,
            "byteOffset" : 289376
        },
        {
            "buffer" : 0,
            "byteLength" : 33360,
            "byteOffset" : 307640
        },
        {
            "buffer" : 0,
            "byteLength" : 33360,
            "byteOffset" : 341000
        },
        {
            "buffer" : 0,
            "byteLength" : 22240,
            "byteOffset" : 374360
        },
        {
            "buffer" : 0,
            "byteLength" : 19440,
            "byteOffset" : 396600
        },
        {
            "buffer" : 0,
            "byteLength" : 15780,
            "byteOffset" : 416040
        },
        {
            "buffer" : 0,
            "byteLength" : 15780,
            "byteOffset" : 431820
        },
        {
            "buffer" : 0,
            "byteLength" : 10520,
            "byteOffset" : 447600
        },
        {
            "buffer" : 0,
            "byteLength" : 6480,
            "byteOffset" : 458120
        }
    ],
    "buffers" : [
        {
            "byteLength" : 464600,
            "uri" : "data:application/octet-stream;base64,"
        }
    ]
}
