{
    "asset" : {
        "generator" : "Khronos glTF Blender I/O v1.6.16",
        "version" : "2.0"
    },
    "scene" : 0,
    "scenes" : [
        {
            "name" : "Scene",
            "nodes" : [
                0
            ]
        }
    ],
    "nodes" : [
        {
            "mesh" : 0,
            "name" : "dishes",
            "rotation" : [
                0,
                0.9998323917388916,
                0,
                0.01830912195146084
            ],
            "scale" : [
                0.7080199718475342,
                0.7080199718475342,
                0.7080199718475342
            ],
            "translation" : [
                -1.6815412044525146,
                0.8605464100837708,
                6.490863800048828
            ]
        }
    ],
    "materials" : [
        {
            "doubleSided" : true,
            "name" : "plateMaterial",
            "pbrMetallicRoughness" : {
                "baseColorFactor" : [
                    0.800000011920929,
                    0.800000011920929,
                    0.800000011920929,
                    1
                ],
                "metallicFactor" : 0,
                "roughnessFactor" : 0.5
            }
        },
        {
            "doubleSided" : true,
            "name" : "plate2material",
            "pbrMetallicRoughness" : {
                "baseColorFactor" : [
                    0.3505564332008362,
                    0.3505564332008362,
                    0.3505564332008362,
                    1
                ],
                "metallicFactor" : 0,
                "roughnessFactor" : 0.5
            }
        },
        {
            "doubleSided" : true,
            "name" : "plate3Material",
            "pbrMetallicRoughness" : {
                "baseColorFactor" : [
                    0.6151774525642395,
                    0.4423656761646271,
                    0.3583069443702698,
                    1
                ],
                "metallicFactor" : 0,
                "roughnessFactor" : 0.5
            }
        },
        {
            "doubleSided" : true,
            "name" : "forkMaterial",
            "pbrMetallicRoughness" : {
                "baseColorFactor" : [
                    0.800000011920929,
                    0.800000011920929,
                    0.800000011920929,
                    1
                ],
                "roughnessFactor" : 0.5
            }
        }
    ],
    "meshes" : [
        {
            "name" : "Cylinder.006",
            "primitives" : [
                {
                    "attributes" : {
                        "POSITION" : 0,
                        "NORMAL" : 1,
                        "TEXCOORD_0" : 2
                    },
                    "indices" : 3,
                    "material" : 0
                },
                {
                    "attributes" : {
                        "POSITION" : 4,
                        "NORMAL" : 5,
                        "TEXCOORD_0" : 6
                    },
                    "indices" : 7,
                    "material" : 1
                },
                {
                    "attributes" : {
                        "POSITION" : 8,
                        "NORMAL" : 9,
                        "TEXCOORD_0" : 10
                    },
                    "indices" : 11,
                    "material" : 2
                },
                {
                    "attributes" : {
                        "POSITION" : 12,
                        "NORMAL" : 13,
                        "TEXCOORD_0" : 14
                    },
                    "indices" : 15,
                    "material" : 3
                }
            ]
        }
    ],
    "accessors" : [
        {
            "bufferView" : 0,
            "componentType" : 5126,
            "count" : 9040,
            "max" : [
                0.24139843881130219,
                0.3024771809577942,
                0.4793606102466583
            ],
            "min" : [
                -0.7051714062690735,
                -0.15911763906478882,
                -0.24282455444335938
            ],
            "type" : "VEC3"
        },
        {
            "bufferView" : 1,
            "componentType" : 5126,
            "count" : 9040,
            "type" : "VEC3"
        },
        {
            "bufferView" : 2,
            "componentType" : 5126,
            "count" : 9040,
            "type" : "VEC2"
        },
        {
            "bufferView" : 3,
            "componentType" : 5123,
            "count" : 33024,
            "type" : "SCALAR"
        },
        {
            "bufferView" : 4,
            "componentType" : 5126,
            "count" : 2876,
            "max" : [
                0.24738939106464386,
                0.3024771809577942,
                0.4383622407913208
            ],
            "min" : [
                -0.6851295232772827,
                -0.1470234990119934,
                -0.23528513312339783
            ],
            "type" : "VEC3"
        },
        {
            "bufferView" : 5,
            "componentType" : 5126,
            "count" : 2876,
            "type" : "VEC3"
        },
        {
            "bufferView" : 6,
            "componentType" : 5126,
            "count" : 2876,
            "type" : "VEC2"
        },
        {
            "bufferView" : 7,
            "componentType" : 5123,
            "count" : 10272,
            "type" : "SCALAR"
        },
        {
            "bufferView" : 8,
            "componentType" : 5126,
            "count" : 4182,
            "max" : [
                0.24579913914203644,
                0.17249396443367004,
                0.47363466024398804
            ],
            "min" : [
                -0.6742263436317444,
                -0.1470234990119934,
                -0.24425280094146729
            ],
            "type" : "VEC3"
        },
        {
            "bufferView" : 9,
            "componentType" : 5126,
            "count" : 4182,
            "type" : "VEC3"
        },
        {
            "bufferView" : 10,
            "componentType" : 5126,
            "count" : 4182,
            "type" : "VEC2"
        },
        {
            "bufferView" : 11,
            "componentType" : 5123,
            "count" : 14844,
            "type" : "SCALAR"
        },
        {
            "bufferView" : 12,
            "componentType" : 5126,
            "count" : 1578,
            "max" : [
                0.04626878350973129,
                0.1650618314743042,
                0.2343914806842804
            ],
            "min" : [
                -0.4783099591732025,
                -0.004751056432723999,
                -0.07988102734088898
            ],
            "type" : "VEC3"
        },
        {
            "bufferView" : 13,
            "componentType" : 5126,
            "count" : 1578,
            "type" : "VEC3"
        },
        {
            "bufferView" : 14,
            "componentType" : 5126,
            "count" : 1578,
            "type" : "VEC2"
        },
        {
            "bufferView" : 15,
            "componentType" : 5123,
            "count" : 3888,
            "type" : "SCALAR"
        }
    ],
    "bufferViews" : [
        {
            "buffer" : 0,
            "byteLength" : 108480,
            "byteOffset" : 0
        },
        {
            "buffer" : 0,
            "byteLength" : 108480,
            "byteOffset" : 108480
        },
        {
            "buffer" : 0,
            "byteLength" : 72320,
            "byteOffset" : 216960
        },
        {
            "buffer" : 0,
            "byteLength" : 66048,
            "byteOffset" : 289280
        },
        {
            "buffer" : 0,
            "byteLength" : 34512,
            "byteOffset" : 355328
        },
        {
            "buffer" : 0,
            "byteLength" : 34512,
            "byteOffset" : 389840
        },
        {
            "buffer" : 0,
            "byteLength" : 23008,
            "byteOffset" : 424352
        },
        {
            "buffer" : 0,
            "byteLength" : 20544,
            "byteOffset" : 447360
        },
        {
            "buffer" : 0,
            "byteLength" : 50184,
            "byteOffset" : 467904
        },
        {
            "buffer" : 0,
            "byteLength" : 50184,
            "byteOffset" : 518088
        },
        {
            "buffer" : 0,
            "byteLength" : 33456,
            "byteOffset" : 568272
        },
        {
            "buffer" : 0,
            "byteLength" : 29688,
            "byteOffset" : 601728
        },
        {
            "buffer" : 0,
            "byteLength" : 18936,
            "byteOffset" : 631416
        },
        {
            "buffer" : 0,
            "byteLength" : 18936,
            "byteOffset" : 650352
        },
        {
            "buffer" : 0,
            "byteLength" : 12624,
            "byteOffset" : 669288
        },
        {
            "buffer" : 0,
            "byteLength" : 7776,
            "byteOffset" : 681912
        }
    ],
    "buffers" : [
        {
            "byteLength" : 689688,
            "uri" : "data:application/octet-stream;base64,"
        }
    ]
}
